<svg width="740" height="191" viewBox="0 0 740 191" fill="none" xmlns="http://www.w3.org/2000/svg">
<g filter="url(#filter0_d_14_77)">
<path d="M27.6761 30.9091V60H23.642L8.85511 38.6648H8.58523V60H4.19602V30.9091H8.25852L23.0597 52.2727H23.3295V30.9091H27.6761ZM40.0874 60.483C38.7048 60.483 37.4548 60.2273 36.3374 59.7159C35.2199 59.1951 34.3345 58.4422 33.6811 57.4574C33.0372 56.4725 32.7152 55.2652 32.7152 53.8352C32.7152 52.6042 32.9519 51.5909 33.4254 50.7955C33.8989 50 34.5381 49.3703 35.343 48.9062C36.148 48.4422 37.0476 48.0919 38.0419 47.8551C39.0362 47.6184 40.0495 47.4384 41.0817 47.3153C42.3885 47.1638 43.4491 47.0407 44.2635 46.946C45.0779 46.8419 45.6697 46.6761 46.0391 46.4489C46.4084 46.2216 46.593 45.8523 46.593 45.3409V45.2415C46.593 44.0009 46.2427 43.0398 45.5419 42.358C44.8506 41.6761 43.8184 41.3352 42.4453 41.3352C41.0154 41.3352 39.8885 41.6525 39.0646 42.2869C38.2502 42.9119 37.6868 43.608 37.3743 44.375L33.3828 43.4659C33.8563 42.1402 34.5476 41.0701 35.4567 40.2557C36.3752 39.4318 37.4311 38.8352 38.6243 38.4659C39.8175 38.0871 41.0722 37.8977 42.3885 37.8977C43.2597 37.8977 44.183 38.0019 45.1584 38.2102C46.1432 38.4091 47.0618 38.7784 47.9141 39.3182C48.7758 39.858 49.4813 40.6297 50.0305 41.6335C50.5798 42.6278 50.8544 43.9205 50.8544 45.5114V60H46.7067V57.017H46.5362C46.2616 57.5663 45.8497 58.1061 45.3004 58.6364C44.7512 59.1667 44.0457 59.607 43.1839 59.9574C42.3222 60.3078 41.29 60.483 40.0874 60.483ZM41.0107 57.0739C42.1849 57.0739 43.1887 56.8419 44.022 56.3778C44.8648 55.9138 45.504 55.3078 45.9396 54.5597C46.3847 53.8021 46.6072 52.9924 46.6072 52.1307V49.3182C46.4557 49.4697 46.1622 49.6117 45.7266 49.7443C45.3004 49.8674 44.8127 49.9763 44.2635 50.071C43.7143 50.1562 43.1792 50.2367 42.6584 50.3125C42.1375 50.3788 41.7019 50.4356 41.3516 50.483C40.5277 50.5871 39.7749 50.7623 39.093 51.0085C38.4207 51.2547 37.8809 51.6098 37.4737 52.0739C37.076 52.5284 36.8771 53.1345 36.8771 53.892C36.8771 54.9432 37.2654 55.7386 38.0419 56.2784C38.8184 56.8087 39.808 57.0739 41.0107 57.0739ZM74.3949 38.1818L66.483 60H61.9375L54.0114 38.1818H58.571L64.0966 54.9716H64.3239L69.8352 38.1818H74.3949ZM78.3864 60V38.1818H82.6335V60H78.3864ZM80.5312 34.8153C79.7926 34.8153 79.1581 34.5691 78.6278 34.0767C78.107 33.5748 77.8466 32.9782 77.8466 32.2869C77.8466 31.5862 78.107 30.9896 78.6278 30.4972C79.1581 29.9953 79.7926 29.7443 80.5312 29.7443C81.2699 29.7443 81.8996 29.9953 82.4205 30.4972C82.9508 30.9896 83.2159 31.5862 83.2159 32.2869C83.2159 32.9782 82.9508 33.5748 82.4205 34.0767C81.8996 34.5691 81.2699 34.8153 80.5312 34.8153ZM97.495 68.6364C95.7621 68.6364 94.2706 68.4091 93.0206 67.9545C91.7801 67.5 90.7668 66.8987 89.9808 66.1506C89.1948 65.4025 88.6077 64.5833 88.2195 63.6932L91.87 62.1875C92.1257 62.6042 92.4666 63.0445 92.8928 63.5085C93.3284 63.982 93.9155 64.3845 94.6541 64.7159C95.4022 65.0473 96.3634 65.2131 97.5376 65.2131C99.1475 65.2131 100.478 64.8201 101.529 64.0341C102.58 63.2576 103.106 62.017 103.106 60.3125V56.0227H102.836C102.58 56.4867 102.211 57.0028 101.728 57.571C101.254 58.1392 100.601 58.6316 99.7678 59.0483C98.9344 59.465 97.8501 59.6733 96.5149 59.6733C94.7914 59.6733 93.2384 59.2708 91.8558 58.4659C90.4827 57.6515 89.3937 56.4536 88.5888 54.8722C87.7933 53.2812 87.3956 51.3258 87.3956 49.0057C87.3956 46.6856 87.7886 44.697 88.5746 43.0398C89.37 41.3826 90.459 40.1136 91.8416 39.233C93.2242 38.3428 94.7914 37.8977 96.5433 37.8977C97.8975 37.8977 98.9912 38.125 99.8246 38.5795C100.658 39.0246 101.307 39.5455 101.771 40.142C102.244 40.7386 102.609 41.2642 102.864 41.7188H103.177V38.1818H107.339V60.483C107.339 62.358 106.903 63.8968 106.032 65.0994C105.161 66.3021 103.982 67.1922 102.495 67.7699C101.018 68.3475 99.3511 68.6364 97.495 68.6364ZM97.4524 56.1506C98.674 56.1506 99.7062 55.8665 100.549 55.2983C101.401 54.7206 102.045 53.8968 102.481 52.8267C102.926 51.7472 103.148 50.4545 103.148 48.9489C103.148 47.4811 102.931 46.1884 102.495 45.071C102.059 43.9536 101.42 43.0824 100.577 42.4574C99.7346 41.8229 98.6929 41.5057 97.4524 41.5057C96.174 41.5057 95.1087 41.8371 94.2564 42.5C93.4041 43.1534 92.7602 44.0436 92.3246 45.1705C91.8984 46.2973 91.6854 47.5568 91.6854 48.9489C91.6854 50.3788 91.9032 51.6335 92.3388 52.7131C92.7744 53.7926 93.4183 54.6354 94.2706 55.2415C95.1323 55.8475 96.1929 56.1506 97.4524 56.1506ZM119.384 60.483C118.002 60.483 116.752 60.2273 115.634 59.7159C114.517 59.1951 113.631 58.4422 112.978 57.4574C112.334 56.4725 112.012 55.2652 112.012 53.8352C112.012 52.6042 112.249 51.5909 112.722 50.7955C113.196 50 113.835 49.3703 114.64 48.9062C115.445 48.4422 116.344 48.0919 117.339 47.8551C118.333 47.6184 119.346 47.4384 120.379 47.3153C121.685 47.1638 122.746 47.0407 123.56 46.946C124.375 46.8419 124.967 46.6761 125.336 46.4489C125.705 46.2216 125.89 45.8523 125.89 45.3409V45.2415C125.89 44.0009 125.54 43.0398 124.839 42.358C124.147 41.6761 123.115 41.3352 121.742 41.3352C120.312 41.3352 119.185 41.6525 118.362 42.2869C117.547 42.9119 116.984 43.608 116.671 44.375L112.68 43.4659C113.153 42.1402 113.844 41.0701 114.754 40.2557C115.672 39.4318 116.728 38.8352 117.921 38.4659C119.114 38.0871 120.369 37.8977 121.685 37.8977C122.557 37.8977 123.48 38.0019 124.455 38.2102C125.44 38.4091 126.359 38.7784 127.211 39.3182C128.073 39.858 128.778 40.6297 129.327 41.6335C129.877 42.6278 130.151 43.9205 130.151 45.5114V60H126.004V57.017H125.833C125.558 57.5663 125.147 58.1061 124.597 58.6364C124.048 59.1667 123.343 59.607 122.481 59.9574C121.619 60.3078 120.587 60.483 119.384 60.483ZM120.308 57.0739C121.482 57.0739 122.486 56.8419 123.319 56.3778C124.162 55.9138 124.801 55.3078 125.237 54.5597C125.682 53.8021 125.904 52.9924 125.904 52.1307V49.3182C125.753 49.4697 125.459 49.6117 125.023 49.7443C124.597 49.8674 124.11 49.9763 123.56 50.071C123.011 50.1562 122.476 50.2367 121.955 50.3125C121.434 50.3788 120.999 50.4356 120.648 50.483C119.825 50.5871 119.072 50.7623 118.39 51.0085C117.718 51.2547 117.178 51.6098 116.771 52.0739C116.373 52.5284 116.174 53.1345 116.174 53.892C116.174 54.9432 116.562 55.7386 117.339 56.2784C118.115 56.8087 119.105 57.0739 120.308 57.0739ZM145.993 38.1818V41.5909H134.075V38.1818H145.993ZM137.271 32.9545H141.518V53.5938C141.518 54.4176 141.642 55.0379 141.888 55.4545C142.134 55.8617 142.451 56.1411 142.839 56.2926C143.237 56.4347 143.668 56.5057 144.132 56.5057C144.473 56.5057 144.771 56.482 145.027 56.4347C145.283 56.3873 145.482 56.3494 145.624 56.321L146.391 59.8295C146.144 59.9242 145.794 60.0189 145.339 60.1136C144.885 60.2178 144.317 60.2746 143.635 60.2841C142.518 60.303 141.476 60.1042 140.51 59.6875C139.544 59.2708 138.763 58.6269 138.166 57.7557C137.57 56.8845 137.271 55.7907 137.271 54.4744V32.9545ZM159.86 60.4403C157.71 60.4403 155.859 59.9811 154.306 59.0625C152.763 58.1345 151.569 56.8324 150.727 55.1562C149.893 53.4706 149.477 51.4962 149.477 49.233C149.477 46.9981 149.893 45.0284 150.727 43.3239C151.569 41.6193 152.744 40.2888 154.249 39.3324C155.764 38.3759 157.535 37.8977 159.562 37.8977C160.793 37.8977 161.986 38.1013 163.141 38.5085C164.297 38.9157 165.334 39.5549 166.252 40.4261C167.171 41.2973 167.895 42.429 168.425 43.821C168.956 45.2036 169.221 46.8845 169.221 48.8636V50.3693H151.877V47.1875H165.059C165.059 46.0701 164.832 45.0805 164.377 44.2188C163.923 43.3475 163.283 42.661 162.46 42.1591C161.645 41.6572 160.689 41.4062 159.59 41.4062C158.397 41.4062 157.355 41.6998 156.465 42.2869C155.585 42.8646 154.903 43.6222 154.42 44.5597C153.946 45.4877 153.71 46.4962 153.71 47.5852V50.071C153.71 51.5294 153.965 52.7699 154.477 53.7926C154.997 54.8153 155.722 55.5966 156.65 56.1364C157.578 56.6667 158.662 56.9318 159.903 56.9318C160.708 56.9318 161.442 56.8182 162.104 56.5909C162.767 56.3542 163.34 56.0038 163.823 55.5398C164.306 55.0758 164.675 54.5028 164.931 53.821L168.951 54.5455C168.629 55.7292 168.051 56.7661 167.218 57.6562C166.394 58.5369 165.357 59.2235 164.107 59.7159C162.867 60.1989 161.451 60.4403 159.86 60.4403ZM194.704 38.1818V41.5909H182.786V38.1818H194.704ZM185.982 32.9545H190.229V53.5938C190.229 54.4176 190.353 55.0379 190.599 55.4545C190.845 55.8617 191.162 56.1411 191.55 56.2926C191.948 56.4347 192.379 56.5057 192.843 56.5057C193.184 56.5057 193.482 56.482 193.738 56.4347C193.994 56.3873 194.192 56.3494 194.335 56.321L195.102 59.8295C194.855 59.9242 194.505 60.0189 194.05 60.1136C193.596 60.2178 193.028 60.2746 192.346 60.2841C191.228 60.303 190.187 60.1042 189.221 59.6875C188.255 59.2708 187.474 58.6269 186.877 57.7557C186.281 56.8845 185.982 55.7907 185.982 54.4744V32.9545ZM204.118 47.0455V60H199.871V30.9091H204.061V41.733H204.331C204.842 40.5587 205.624 39.6259 206.675 38.9347C207.726 38.2434 209.099 37.8977 210.794 37.8977C212.29 37.8977 213.597 38.2055 214.714 38.821C215.841 39.4366 216.713 40.3551 217.328 41.5767C217.953 42.7888 218.266 44.304 218.266 46.1222V60H214.018V46.6335C214.018 45.0331 213.607 43.7926 212.783 42.9119C211.959 42.0218 210.813 41.5767 209.345 41.5767C208.341 41.5767 207.442 41.7898 206.646 42.2159C205.86 42.642 205.24 43.267 204.786 44.0909C204.34 44.9053 204.118 45.8902 204.118 47.0455ZM233.337 60.4403C231.187 60.4403 229.336 59.9811 227.783 59.0625C226.239 58.1345 225.046 56.8324 224.203 55.1562C223.37 53.4706 222.953 51.4962 222.953 49.233C222.953 46.9981 223.37 45.0284 224.203 43.3239C225.046 41.6193 226.22 40.2888 227.726 39.3324C229.241 38.3759 231.012 37.8977 233.038 37.8977C234.269 37.8977 235.463 38.1013 236.618 38.5085C237.773 38.9157 238.81 39.5549 239.729 40.4261C240.647 41.2973 241.372 42.429 241.902 43.821C242.432 45.2036 242.697 46.8845 242.697 48.8636V50.3693H225.354V47.1875H238.536C238.536 46.0701 238.308 45.0805 237.854 44.2188C237.399 43.3475 236.76 42.661 235.936 42.1591C235.122 41.6572 234.165 41.4062 233.067 41.4062C231.874 41.4062 230.832 41.6998 229.942 42.2869C229.061 42.8646 228.379 43.6222 227.896 44.5597C227.423 45.4877 227.186 46.4962 227.186 47.5852V50.071C227.186 51.5294 227.442 52.7699 227.953 53.7926C228.474 54.8153 229.198 55.5966 230.126 56.1364C231.054 56.6667 232.139 56.9318 233.379 56.9318C234.184 56.9318 234.918 56.8182 235.581 56.5909C236.244 56.3542 236.817 56.0038 237.3 55.5398C237.783 55.0758 238.152 54.5028 238.408 53.821L242.428 54.5455C242.106 55.7292 241.528 56.7661 240.695 57.6562C239.871 58.5369 238.834 59.2235 237.584 59.7159C236.343 60.1989 234.928 60.4403 233.337 60.4403ZM258.337 30.9091H263.663L272.925 53.5227H273.266L282.527 30.9091H287.854V60H283.678V38.9489H283.408L274.828 59.9574H271.362L262.783 38.9347H262.513V60H258.337V30.9091ZM300.244 60.483C298.861 60.483 297.611 60.2273 296.494 59.7159C295.376 59.1951 294.491 58.4422 293.837 57.4574C293.193 56.4725 292.871 55.2652 292.871 53.8352C292.871 52.6042 293.108 51.5909 293.582 50.7955C294.055 50 294.694 49.3703 295.499 48.9062C296.304 48.4422 297.204 48.0919 298.198 47.8551C299.192 47.6184 300.206 47.4384 301.238 47.3153C302.545 47.1638 303.605 47.0407 304.42 46.946C305.234 46.8419 305.826 46.6761 306.195 46.4489C306.565 46.2216 306.749 45.8523 306.749 45.3409V45.2415C306.749 44.0009 306.399 43.0398 305.698 42.358C305.007 41.6761 303.975 41.3352 302.602 41.3352C301.172 41.3352 300.045 41.6525 299.221 42.2869C298.406 42.9119 297.843 43.608 297.531 44.375L293.539 43.4659C294.013 42.1402 294.704 41.0701 295.613 40.2557C296.531 39.4318 297.587 38.8352 298.781 38.4659C299.974 38.0871 301.228 37.8977 302.545 37.8977C303.416 37.8977 304.339 38.0019 305.315 38.2102C306.299 38.4091 307.218 38.7784 308.07 39.3182C308.932 39.858 309.638 40.6297 310.187 41.6335C310.736 42.6278 311.011 43.9205 311.011 45.5114V60H306.863V57.017H306.692C306.418 57.5663 306.006 58.1061 305.457 58.6364C304.907 59.1667 304.202 59.607 303.34 59.9574C302.478 60.3078 301.446 60.483 300.244 60.483ZM301.167 57.0739C302.341 57.0739 303.345 56.8419 304.178 56.3778C305.021 55.9138 305.66 55.3078 306.096 54.5597C306.541 53.8021 306.763 52.9924 306.763 52.1307V49.3182C306.612 49.4697 306.318 49.6117 305.883 49.7443C305.457 49.8674 304.969 49.9763 304.42 50.071C303.871 50.1562 303.335 50.2367 302.815 50.3125C302.294 50.3788 301.858 50.4356 301.508 50.483C300.684 50.5871 299.931 50.7623 299.249 51.0085C298.577 51.2547 298.037 51.6098 297.63 52.0739C297.232 52.5284 297.033 53.1345 297.033 53.892C297.033 54.9432 297.422 55.7386 298.198 56.2784C298.975 56.8087 299.964 57.0739 301.167 57.0739ZM316.668 60V38.1818H320.773V41.6477H321C321.398 40.4735 322.098 39.5502 323.102 38.8778C324.116 38.196 325.261 37.8551 326.54 37.8551C326.805 37.8551 327.117 37.8646 327.477 37.8835C327.847 37.9025 328.135 37.9261 328.344 37.9545V42.017C328.173 41.9697 327.87 41.9176 327.435 41.8608C326.999 41.7945 326.563 41.7614 326.128 41.7614C325.124 41.7614 324.229 41.9744 323.443 42.4006C322.667 42.8172 322.051 43.3996 321.597 44.1477C321.142 44.8864 320.915 45.7292 320.915 46.6761V60H316.668ZM335.925 52.5994L335.897 47.4148H336.636L345.329 38.1818H350.414L340.499 48.6932H339.832L335.925 52.5994ZM332.019 60V30.9091H336.266V60H332.019ZM345.798 60L337.985 49.6307L340.911 46.6619L351.011 60H345.798ZM362.79 60.4403C360.64 60.4403 358.789 59.9811 357.236 59.0625C355.692 58.1345 354.499 56.8324 353.656 55.1562C352.823 53.4706 352.406 51.4962 352.406 49.233C352.406 46.9981 352.823 45.0284 353.656 43.3239C354.499 41.6193 355.673 40.2888 357.179 39.3324C358.694 38.3759 360.465 37.8977 362.491 37.8977C363.723 37.8977 364.916 38.1013 366.071 38.5085C367.226 38.9157 368.263 39.5549 369.182 40.4261C370.1 41.2973 370.825 42.429 371.355 43.821C371.885 45.2036 372.151 46.8845 372.151 48.8636V50.3693H354.807V47.1875H367.989C367.989 46.0701 367.761 45.0805 367.307 44.2188C366.852 43.3475 366.213 42.661 365.389 42.1591C364.575 41.6572 363.618 41.4062 362.52 41.4062C361.327 41.4062 360.285 41.6998 359.395 42.2869C358.514 42.8646 357.832 43.6222 357.349 44.5597C356.876 45.4877 356.639 46.4962 356.639 47.5852V50.071C356.639 51.5294 356.895 52.7699 357.406 53.7926C357.927 54.8153 358.652 55.5966 359.58 56.1364C360.508 56.6667 361.592 56.9318 362.832 56.9318C363.637 56.9318 364.371 56.8182 365.034 56.5909C365.697 56.3542 366.27 56.0038 366.753 55.5398C367.236 55.0758 367.605 54.5028 367.861 53.821L371.881 54.5455C371.559 55.7292 370.981 56.7661 370.148 57.6562C369.324 58.5369 368.287 59.2235 367.037 59.7159C365.796 60.1989 364.381 60.4403 362.79 60.4403ZM387.048 38.1818V41.5909H375.13V38.1818H387.048ZM378.326 32.9545H382.573V53.5938C382.573 54.4176 382.696 55.0379 382.942 55.4545C383.189 55.8617 383.506 56.1411 383.894 56.2926C384.292 56.4347 384.723 56.5057 385.187 56.5057C385.528 56.5057 385.826 56.482 386.082 56.4347C386.337 56.3873 386.536 56.3494 386.678 56.321L387.445 59.8295C387.199 59.9242 386.849 60.0189 386.394 60.1136C385.94 60.2178 385.371 60.2746 384.69 60.2841C383.572 60.303 382.531 60.1042 381.565 59.6875C380.599 59.2708 379.817 58.6269 379.221 57.7557C378.624 56.8845 378.326 55.7907 378.326 54.4744V32.9545ZM407.744 43.5085L403.894 44.1903C403.733 43.6979 403.478 43.2292 403.127 42.7841C402.786 42.339 402.322 41.9744 401.735 41.6903C401.148 41.4062 400.414 41.2642 399.533 41.2642C398.331 41.2642 397.327 41.5341 396.522 42.0739C395.717 42.6042 395.315 43.2907 395.315 44.1335C395.315 44.8627 395.585 45.4498 396.124 45.8949C396.664 46.34 397.535 46.7045 398.738 46.9886L402.204 47.7841C404.211 48.2481 405.708 48.9631 406.692 49.929C407.677 50.8949 408.17 52.1496 408.17 53.6932C408.17 55 407.791 56.1648 407.033 57.1875C406.285 58.2008 405.239 58.9962 403.894 59.5739C402.559 60.1515 401.011 60.4403 399.249 60.4403C396.806 60.4403 394.813 59.9195 393.269 58.8778C391.726 57.8267 390.779 56.3352 390.428 54.4034L394.533 53.7784C394.789 54.8485 395.315 55.6581 396.11 56.2074C396.906 56.7472 397.942 57.017 399.221 57.017C400.613 57.017 401.726 56.7282 402.559 56.1506C403.392 55.5634 403.809 54.8485 403.809 54.0057C403.809 53.3239 403.553 52.7509 403.042 52.2869C402.54 51.8229 401.768 51.4725 400.727 51.2358L397.033 50.4261C394.997 49.9621 393.492 49.2235 392.516 48.2102C391.55 47.197 391.067 45.9138 391.067 44.3608C391.067 43.0729 391.427 41.946 392.147 40.9801C392.867 40.0142 393.861 39.2614 395.13 38.7216C396.399 38.1723 397.853 37.8977 399.491 37.8977C401.849 37.8977 403.705 38.4091 405.059 39.4318C406.413 40.4451 407.308 41.804 407.744 43.5085ZM428.156 60L421.735 38.1818H426.124L430.4 54.2045H430.613L434.903 38.1818H439.292L443.553 54.1335H443.766L448.013 38.1818H452.403L445.996 60H441.664L437.232 44.2472H436.906L432.474 60H428.156ZM456.433 60V38.1818H460.68V60H456.433ZM458.578 34.8153C457.839 34.8153 457.205 34.5691 456.675 34.0767C456.154 33.5748 455.893 32.9782 455.893 32.2869C455.893 31.5862 456.154 30.9896 456.675 30.4972C457.205 29.9953 457.839 29.7443 458.578 29.7443C459.317 29.7443 459.946 29.9953 460.467 30.4972C460.998 30.9896 461.263 31.5862 461.263 32.2869C461.263 32.9782 460.998 33.5748 460.467 34.0767C459.946 34.5691 459.317 34.8153 458.578 34.8153ZM476.579 38.1818V41.5909H464.661V38.1818H476.579ZM467.857 32.9545H472.104V53.5938C472.104 54.4176 472.228 55.0379 472.474 55.4545C472.72 55.8617 473.037 56.1411 473.425 56.2926C473.823 56.4347 474.254 56.5057 474.718 56.5057C475.059 56.5057 475.357 56.482 475.613 56.4347C475.869 56.3873 476.067 56.3494 476.21 56.321L476.977 59.8295C476.73 59.9242 476.38 60.0189 475.925 60.1136C475.471 60.2178 474.903 60.2746 474.221 60.2841C473.103 60.303 472.062 60.1042 471.096 59.6875C470.13 59.2708 469.349 58.6269 468.752 57.7557C468.156 56.8845 467.857 55.7907 467.857 54.4744V32.9545ZM485.993 47.0455V60H481.746V30.9091H485.936V41.733H486.206C486.717 40.5587 487.499 39.6259 488.55 38.9347C489.601 38.2434 490.974 37.8977 492.669 37.8977C494.165 37.8977 495.472 38.2055 496.589 38.821C497.716 39.4366 498.588 40.3551 499.203 41.5767C499.828 42.7888 500.141 44.304 500.141 46.1222V60H495.893V46.6335C495.893 45.0331 495.482 43.7926 494.658 42.9119C493.834 42.0218 492.688 41.5767 491.22 41.5767C490.216 41.5767 489.317 41.7898 488.521 42.2159C487.735 42.642 487.115 43.267 486.661 44.0909C486.215 44.9053 485.993 45.8902 485.993 47.0455ZM540.897 40.3693H536.465C536.295 39.4223 535.978 38.589 535.513 37.8693C535.049 37.1496 534.481 36.5388 533.809 36.0369C533.137 35.535 532.384 35.1562 531.55 34.9006C530.727 34.6449 529.851 34.517 528.923 34.517C527.246 34.517 525.746 34.9384 524.42 35.7812C523.103 36.6241 522.062 37.8598 521.295 39.4886C520.537 41.1174 520.158 43.1061 520.158 45.4545C520.158 47.822 520.537 49.8201 521.295 51.4489C522.062 53.0777 523.108 54.3087 524.434 55.142C525.76 55.9754 527.251 56.392 528.908 56.392C529.827 56.392 530.698 56.2689 531.522 56.0227C532.355 55.767 533.108 55.393 533.781 54.9006C534.453 54.4081 535.021 53.8068 535.485 53.0966C535.959 52.3769 536.285 51.553 536.465 50.625L540.897 50.6392C540.66 52.0691 540.201 53.3854 539.519 54.5881C538.847 55.7812 537.98 56.8134 536.92 57.6847C535.869 58.5464 534.666 59.214 533.312 59.6875C531.958 60.161 530.48 60.3977 528.88 60.3977C526.361 60.3977 524.117 59.8011 522.147 58.608C520.177 57.4053 518.624 55.6866 517.488 53.4517C516.361 51.2169 515.798 48.5511 515.798 45.4545C515.798 42.3485 516.366 39.6828 517.502 37.4574C518.638 35.2225 520.192 33.5085 522.161 32.3153C524.131 31.1127 526.371 30.5114 528.88 30.5114C530.424 30.5114 531.863 30.7339 533.198 31.179C534.543 31.6146 535.75 32.2585 536.82 33.1108C537.89 33.9536 538.776 34.9858 539.477 36.2074C540.177 37.4195 540.651 38.8068 540.897 40.3693ZM554.999 60.4403C552.953 60.4403 551.168 59.9716 549.643 59.0341C548.119 58.0966 546.935 56.785 546.092 55.0994C545.25 53.4138 544.828 51.4441 544.828 49.1903C544.828 46.9271 545.25 44.9479 546.092 43.2528C546.935 41.5578 548.119 40.2415 549.643 39.304C551.168 38.3665 552.953 37.8977 554.999 37.8977C557.044 37.8977 558.829 38.3665 560.354 39.304C561.878 40.2415 563.062 41.5578 563.905 43.2528C564.748 44.9479 565.169 46.9271 565.169 49.1903C565.169 51.4441 564.748 53.4138 563.905 55.0994C563.062 56.785 561.878 58.0966 560.354 59.0341C558.829 59.9716 557.044 60.4403 554.999 60.4403ZM555.013 56.875C556.339 56.875 557.437 56.5246 558.308 55.8239C559.179 55.1231 559.823 54.1903 560.24 53.0256C560.666 51.8608 560.879 50.5777 560.879 49.1761C560.879 47.7841 560.666 46.5057 560.24 45.3409C559.823 44.1667 559.179 43.2244 558.308 42.5142C557.437 41.804 556.339 41.4489 555.013 41.4489C553.678 41.4489 552.57 41.804 551.689 42.5142C550.818 43.2244 550.169 44.1667 549.743 45.3409C549.326 46.5057 549.118 47.7841 549.118 49.1761C549.118 50.5777 549.326 51.8608 549.743 53.0256C550.169 54.1903 550.818 55.1231 551.689 55.8239C552.57 56.5246 553.678 56.875 555.013 56.875ZM574.157 47.0455V60H569.91V38.1818H573.987V41.733H574.256C574.758 40.5777 575.544 39.6496 576.614 38.9489C577.694 38.2481 579.053 37.8977 580.691 37.8977C582.178 37.8977 583.48 38.2102 584.597 38.8352C585.715 39.4508 586.581 40.3693 587.197 41.5909C587.812 42.8125 588.12 44.3229 588.12 46.1222V60H583.873V46.6335C583.873 45.0521 583.461 43.8163 582.637 42.9261C581.813 42.0265 580.682 41.5767 579.242 41.5767C578.257 41.5767 577.381 41.7898 576.614 42.2159C575.857 42.642 575.255 43.267 574.81 44.0909C574.375 44.9053 574.157 45.8902 574.157 47.0455ZM604.2 38.1818V41.5909H591.87V38.1818H604.2ZM595.251 60V35.6534C595.251 34.2898 595.549 33.1581 596.146 32.2585C596.742 31.3494 597.533 30.6723 598.518 30.2273C599.503 29.7727 600.573 29.5455 601.728 29.5455C602.58 29.5455 603.309 29.6165 603.915 29.7585C604.522 29.8911 604.971 30.0142 605.265 30.1278L604.271 33.5653C604.072 33.5085 603.816 33.4422 603.504 33.3665C603.191 33.2812 602.812 33.2386 602.367 33.2386C601.335 33.2386 600.596 33.4943 600.151 34.0057C599.716 34.517 599.498 35.2557 599.498 36.2216V60H595.251ZM608.582 60V38.1818H612.829V60H608.582ZM610.727 34.8153C609.988 34.8153 609.353 34.5691 608.823 34.0767C608.302 33.5748 608.042 32.9782 608.042 32.2869C608.042 31.5862 608.302 30.9896 608.823 30.4972C609.353 29.9953 609.988 29.7443 610.727 29.7443C611.465 29.7443 612.095 29.9953 612.616 30.4972C613.146 30.9896 613.411 31.5862 613.411 32.2869C613.411 32.9782 613.146 33.5748 612.616 34.0767C612.095 34.5691 611.465 34.8153 610.727 34.8153ZM626.71 60.4261C624.949 60.4261 623.377 59.9763 621.994 59.0767C620.621 58.1676 619.542 56.875 618.756 55.1989C617.979 53.5133 617.591 51.4915 617.591 49.1335C617.591 46.7756 617.984 44.7585 618.77 43.0824C619.565 41.4062 620.654 40.1231 622.037 39.233C623.42 38.3428 624.987 37.8977 626.739 37.8977C628.093 37.8977 629.182 38.125 630.006 38.5795C630.839 39.0246 631.483 39.5455 631.938 40.142C632.402 40.7386 632.761 41.2642 633.017 41.7188H633.273V30.9091H637.52V60H633.372V56.6051H633.017C632.761 57.0691 632.392 57.5994 631.909 58.196C631.436 58.7926 630.782 59.3134 629.949 59.7585C629.116 60.2036 628.036 60.4261 626.71 60.4261ZM627.648 56.804C628.869 56.804 629.902 56.482 630.744 55.8381C631.597 55.1847 632.241 54.2803 632.676 53.125C633.121 51.9697 633.344 50.625 633.344 49.0909C633.344 47.5758 633.126 46.25 632.69 45.1136C632.255 43.9773 631.616 43.0919 630.773 42.4574C629.93 41.8229 628.888 41.5057 627.648 41.5057C626.369 41.5057 625.304 41.8371 624.452 42.5C623.599 43.1629 622.955 44.0672 622.52 45.2131C622.094 46.3589 621.881 47.6515 621.881 49.0909C621.881 50.5492 622.098 51.8608 622.534 53.0256C622.97 54.1903 623.614 55.1136 624.466 55.7955C625.328 56.4678 626.388 56.804 627.648 56.804ZM652.985 60.4403C650.835 60.4403 648.984 59.9811 647.431 59.0625C645.888 58.1345 644.694 56.8324 643.852 55.1562C643.018 53.4706 642.602 51.4962 642.602 49.233C642.602 46.9981 643.018 45.0284 643.852 43.3239C644.694 41.6193 645.869 40.2888 647.374 39.3324C648.889 38.3759 650.66 37.8977 652.687 37.8977C653.918 37.8977 655.111 38.1013 656.266 38.5085C657.422 38.9157 658.459 39.5549 659.377 40.4261C660.296 41.2973 661.02 42.429 661.55 43.821C662.081 45.2036 662.346 46.8845 662.346 48.8636V50.3693H645.002V47.1875H658.184C658.184 46.0701 657.957 45.0805 657.502 44.2188C657.048 43.3475 656.408 42.661 655.585 42.1591C654.77 41.6572 653.814 41.4062 652.715 41.4062C651.522 41.4062 650.48 41.6998 649.59 42.2869C648.71 42.8646 648.028 43.6222 647.545 44.5597C647.071 45.4877 646.835 46.4962 646.835 47.5852V50.071C646.835 51.5294 647.09 52.7699 647.602 53.7926C648.122 54.8153 648.847 55.5966 649.775 56.1364C650.703 56.6667 651.787 56.9318 653.028 56.9318C653.833 56.9318 654.567 56.8182 655.229 56.5909C655.892 56.3542 656.465 56.0038 656.948 55.5398C657.431 55.0758 657.8 54.5028 658.056 53.821L662.076 54.5455C661.754 55.7292 661.176 56.7661 660.343 57.6562C659.519 58.5369 658.482 59.2235 657.232 59.7159C655.992 60.1989 654.576 60.4403 652.985 60.4403ZM671.305 47.0455V60H667.058V38.1818H671.135V41.733H671.405C671.907 40.5777 672.693 39.6496 673.763 38.9489C674.842 38.2481 676.201 37.8977 677.839 37.8977C679.326 37.8977 680.628 38.2102 681.746 38.8352C682.863 39.4508 683.73 40.3693 684.345 41.5909C684.961 42.8125 685.268 44.3229 685.268 46.1222V60H681.021V46.6335C681.021 45.0521 680.609 43.8163 679.786 42.9261C678.962 42.0265 677.83 41.5767 676.391 41.5767C675.406 41.5767 674.53 41.7898 673.763 42.2159C673.005 42.642 672.404 43.267 671.959 44.0909C671.523 44.9053 671.305 45.8902 671.305 47.0455ZM700.155 60.4403C698.043 60.4403 696.225 59.9621 694.7 59.0057C693.185 58.0398 692.02 56.7093 691.206 55.0142C690.392 53.3191 689.984 51.3778 689.984 49.1903C689.984 46.9744 690.401 45.0189 691.234 43.3239C692.068 41.6193 693.242 40.2888 694.757 39.3324C696.272 38.3759 698.057 37.8977 700.112 37.8977C701.769 37.8977 703.247 38.2055 704.544 38.821C705.841 39.4271 706.888 40.2794 707.683 41.3778C708.488 42.4763 708.966 43.7595 709.118 45.2273H704.984C704.757 44.2045 704.236 43.3239 703.422 42.5852C702.617 41.8466 701.537 41.4773 700.183 41.4773C699 41.4773 697.963 41.7898 697.072 42.4148C696.192 43.0303 695.505 43.911 695.013 45.0568C694.52 46.1932 694.274 47.5379 694.274 49.0909C694.274 50.6818 694.516 52.0549 694.999 53.2102C695.482 54.3655 696.163 55.2604 697.044 55.8949C697.934 56.5294 698.981 56.8466 700.183 56.8466C700.988 56.8466 701.717 56.6998 702.371 56.4062C703.034 56.1032 703.588 55.6723 704.033 55.1136C704.487 54.5549 704.804 53.8826 704.984 53.0966H709.118C708.966 54.5076 708.507 55.767 707.74 56.875C706.973 57.983 705.946 58.8542 704.658 59.4886C703.379 60.1231 701.878 60.4403 700.155 60.4403ZM723.063 60.4403C720.914 60.4403 719.062 59.9811 717.509 59.0625C715.966 58.1345 714.772 56.8324 713.93 55.1562C713.096 53.4706 712.68 51.4962 712.68 49.233C712.68 46.9981 713.096 45.0284 713.93 43.3239C714.772 41.6193 715.947 40.2888 717.452 39.3324C718.968 38.3759 720.738 37.8977 722.765 37.8977C723.996 37.8977 725.189 38.1013 726.344 38.5085C727.5 38.9157 728.537 39.5549 729.455 40.4261C730.374 41.2973 731.098 42.429 731.629 43.821C732.159 45.2036 732.424 46.8845 732.424 48.8636V50.3693H715.08V47.1875H728.262C728.262 46.0701 728.035 45.0805 727.58 44.2188C727.126 43.3475 726.487 42.661 725.663 42.1591C724.848 41.6572 723.892 41.4062 722.793 41.4062C721.6 41.4062 720.558 41.6998 719.668 42.2869C718.788 42.8646 718.106 43.6222 717.623 44.5597C717.149 45.4877 716.913 46.4962 716.913 47.5852V50.071C716.913 51.5294 717.168 52.7699 717.68 53.7926C718.201 54.8153 718.925 55.5966 719.853 56.1364C720.781 56.6667 721.865 56.9318 723.106 56.9318C723.911 56.9318 724.645 56.8182 725.308 56.5909C725.97 56.3542 726.543 56.0038 727.026 55.5398C727.509 55.0758 727.879 54.5028 728.134 53.821L732.154 54.5455C731.832 55.7292 731.254 56.7661 730.421 57.6562C729.597 58.5369 728.56 59.2235 727.31 59.7159C726.07 60.1989 724.654 60.4403 723.063 60.4403Z" fill="white"/>
</g>
<g filter="url(#filter1_i_14_77)">
<mask id="mask0_14_77" style="mask-type:alpha" maskUnits="userSpaceOnUse" x="1" y="123" width="739" height="68">
<rect x="1" y="123" width="739" height="68" fill="url(#paint0_linear_14_77)"/>
</mask>
<g mask="url(#mask0_14_77)">
<g opacity="0.58" filter="url(#filter2_d_14_77)">
<path d="M27.6761 166.519V137.429H23.642L8.85511 158.764H8.58523V137.429H4.19602V166.519H8.25852L23.0597 145.156H23.3295V166.519H27.6761ZM40.0874 136.946C38.7048 136.946 37.4548 137.201 36.3374 137.713C35.2199 138.234 34.3345 138.986 33.6811 139.971C33.0372 140.956 32.7152 142.163 32.7152 143.593C32.7152 144.824 32.9519 145.838 33.4254 146.633C33.8989 147.429 34.5381 148.058 35.343 148.522C36.148 148.986 37.0476 149.337 38.0419 149.573C39.0362 149.81 40.0495 149.99 41.0817 150.113C42.3885 150.265 43.4491 150.388 44.2635 150.483C45.0779 150.587 45.6697 150.752 46.0391 150.98C46.4084 151.207 46.593 151.576 46.593 152.088V152.187C46.593 153.428 46.2427 154.389 45.5419 155.071C44.8506 155.752 43.8184 156.093 42.4453 156.093C41.0154 156.093 39.8885 155.776 39.0646 155.142C38.2502 154.517 37.6868 153.821 37.3743 153.054L33.3828 153.963C33.8563 155.288 34.5476 156.359 35.4567 157.173C36.3752 157.997 37.4311 158.593 38.6243 158.963C39.8175 159.341 41.0722 159.531 42.3885 159.531C43.2597 159.531 44.183 159.427 45.1584 159.218C46.1432 159.019 47.0618 158.65 47.9141 158.11C48.7758 157.571 49.4813 156.799 50.0305 155.795C50.5798 154.801 50.8544 153.508 50.8544 151.917V137.429H46.7067V140.412H46.5362C46.2616 139.862 45.8497 139.323 45.3004 138.792C44.7512 138.262 44.0457 137.822 43.1839 137.471C42.3222 137.121 41.29 136.946 40.0874 136.946ZM41.0107 140.355C42.1849 140.355 43.1887 140.587 44.022 141.051C44.8648 141.515 45.504 142.121 45.9396 142.869C46.3847 143.627 46.6072 144.436 46.6072 145.298V148.11C46.4557 147.959 46.1622 147.817 45.7266 147.684C45.3004 147.561 44.8127 147.452 44.2635 147.358C43.7143 147.272 43.1792 147.192 42.6584 147.116C42.1375 147.05 41.7019 146.993 41.3516 146.946C40.5277 146.841 39.7749 146.666 39.093 146.42C38.4207 146.174 37.8809 145.819 37.4737 145.355C37.076 144.9 36.8771 144.294 36.8771 143.537C36.8771 142.485 37.2654 141.69 38.0419 141.15C38.8184 140.62 39.808 140.355 41.0107 140.355ZM74.3949 159.247L66.483 137.429H61.9375L54.0114 159.247H58.571L64.0966 142.457H64.3239L69.8352 159.247H74.3949ZM78.3864 137.429V159.247H82.6335V137.429H78.3864ZM80.5312 162.613C79.7926 162.613 79.1581 162.859 78.6278 163.352C78.107 163.854 77.8466 164.45 77.8466 165.142C77.8466 165.842 78.107 166.439 78.6278 166.931C79.1581 167.433 79.7926 167.684 80.5312 167.684C81.2699 167.684 81.8996 167.433 82.4205 166.931C82.9508 166.439 83.2159 165.842 83.2159 165.142C83.2159 164.45 82.9508 163.854 82.4205 163.352C81.8996 162.859 81.2699 162.613 80.5312 162.613ZM97.495 128.792C95.7621 128.792 94.2706 129.019 93.0206 129.474C91.7801 129.929 90.7668 130.53 89.9808 131.278C89.1948 132.026 88.6077 132.845 88.2195 133.735L91.87 135.241C92.1257 134.824 92.4666 134.384 92.8928 133.92C93.3284 133.447 93.9155 133.044 94.6541 132.713C95.4022 132.381 96.3634 132.216 97.5376 132.216C99.1475 132.216 100.478 132.609 101.529 133.394C102.58 134.171 103.106 135.412 103.106 137.116V141.406H102.836C102.58 140.942 102.211 140.426 101.728 139.858C101.254 139.289 100.601 138.797 99.7678 138.38C98.9344 137.964 97.8501 137.755 96.5149 137.755C94.7914 137.755 93.2384 138.158 91.8558 138.963C90.4827 139.777 89.3937 140.975 88.5888 142.556C87.7933 144.147 87.3956 146.103 87.3956 148.423C87.3956 150.743 87.7886 152.732 88.5746 154.389C89.37 156.046 90.459 157.315 91.8416 158.196C93.2242 159.086 94.7914 159.531 96.5433 159.531C97.8975 159.531 98.9912 159.304 99.8246 158.849C100.658 158.404 101.307 157.883 101.771 157.287C102.244 156.69 102.609 156.164 102.864 155.71H103.177V159.247H107.339V136.946C107.339 135.071 106.903 133.532 106.032 132.329C105.161 131.127 103.982 130.236 102.495 129.659C101.018 129.081 99.3511 128.792 97.495 128.792ZM97.4524 141.278C98.674 141.278 99.7062 141.562 100.549 142.13C101.401 142.708 102.045 143.532 102.481 144.602C102.926 145.681 103.148 146.974 103.148 148.48C103.148 149.948 102.931 151.24 102.495 152.358C102.059 153.475 101.42 154.346 100.577 154.971C99.7346 155.606 98.6929 155.923 97.4524 155.923C96.174 155.923 95.1087 155.591 94.2564 154.929C93.4041 154.275 92.7602 153.385 92.3246 152.258C91.8984 151.131 91.6854 149.872 91.6854 148.48C91.6854 147.05 91.9032 145.795 92.3388 144.716C92.7744 143.636 93.4183 142.793 94.2706 142.187C95.1323 141.581 96.1929 141.278 97.4524 141.278ZM119.384 136.946C118.002 136.946 116.752 137.201 115.634 137.713C114.517 138.234 113.631 138.986 112.978 139.971C112.334 140.956 112.012 142.163 112.012 143.593C112.012 144.824 112.249 145.838 112.722 146.633C113.196 147.429 113.835 148.058 114.64 148.522C115.445 148.986 116.344 149.337 117.339 149.573C118.333 149.81 119.346 149.99 120.379 150.113C121.685 150.265 122.746 150.388 123.56 150.483C124.375 150.587 124.967 150.752 125.336 150.98C125.705 151.207 125.89 151.576 125.89 152.088V152.187C125.89 153.428 125.54 154.389 124.839 155.071C124.147 155.752 123.115 156.093 121.742 156.093C120.312 156.093 119.185 155.776 118.362 155.142C117.547 154.517 116.984 153.821 116.671 153.054L112.68 153.963C113.153 155.288 113.844 156.359 114.754 157.173C115.672 157.997 116.728 158.593 117.921 158.963C119.114 159.341 120.369 159.531 121.685 159.531C122.557 159.531 123.48 159.427 124.455 159.218C125.44 159.019 126.359 158.65 127.211 158.11C128.073 157.571 128.778 156.799 129.327 155.795C129.877 154.801 130.151 153.508 130.151 151.917V137.429H126.004V140.412H125.833C125.558 139.862 125.147 139.323 124.597 138.792C124.048 138.262 123.343 137.822 122.481 137.471C121.619 137.121 120.587 136.946 119.384 136.946ZM120.308 140.355C121.482 140.355 122.486 140.587 123.319 141.051C124.162 141.515 124.801 142.121 125.237 142.869C125.682 143.627 125.904 144.436 125.904 145.298V148.11C125.753 147.959 125.459 147.817 125.023 147.684C124.597 147.561 124.11 147.452 123.56 147.358C123.011 147.272 122.476 147.192 121.955 147.116C121.434 147.05 120.999 146.993 120.648 146.946C119.825 146.841 119.072 146.666 118.39 146.42C117.718 146.174 117.178 145.819 116.771 145.355C116.373 144.9 116.174 144.294 116.174 143.537C116.174 142.485 116.562 141.69 117.339 141.15C118.115 140.62 119.105 140.355 120.308 140.355ZM145.993 159.247V155.838H134.075V159.247H145.993ZM137.271 164.474H141.518V143.835C141.518 143.011 141.642 142.391 141.888 141.974C142.134 141.567 142.451 141.287 142.839 141.136C143.237 140.994 143.668 140.923 144.132 140.923C144.473 140.923 144.771 140.947 145.027 140.994C145.283 141.041 145.482 141.079 145.624 141.108L146.391 137.599C146.144 137.504 145.794 137.41 145.339 137.315C144.885 137.211 144.317 137.154 143.635 137.144C142.518 137.126 141.476 137.324 140.51 137.741C139.544 138.158 138.763 138.802 138.166 139.673C137.57 140.544 137.271 141.638 137.271 142.954V164.474ZM159.86 136.988C157.71 136.988 155.859 137.448 154.306 138.366C152.763 139.294 151.569 140.596 150.727 142.272C149.893 143.958 149.477 145.932 149.477 148.196C149.477 150.43 149.893 152.4 150.727 154.105C151.569 155.809 152.744 157.14 154.249 158.096C155.764 159.053 157.535 159.531 159.562 159.531C160.793 159.531 161.986 159.327 163.141 158.92C164.297 158.513 165.334 157.874 166.252 157.002C167.171 156.131 167.895 155 168.425 153.608C168.956 152.225 169.221 150.544 169.221 148.565V147.059H151.877V150.241H165.059C165.059 151.359 164.832 152.348 164.377 153.21C163.923 154.081 163.283 154.768 162.46 155.269C161.645 155.771 160.689 156.022 159.59 156.022C158.397 156.022 157.355 155.729 156.465 155.142C155.585 154.564 154.903 153.806 154.42 152.869C153.946 151.941 153.71 150.932 153.71 149.843V147.358C153.71 145.899 153.965 144.659 154.477 143.636C154.997 142.613 155.722 141.832 156.65 141.292C157.578 140.762 158.662 140.497 159.903 140.497C160.708 140.497 161.442 140.61 162.104 140.838C162.767 141.074 163.34 141.425 163.823 141.889C164.306 142.353 164.675 142.926 164.931 143.608L168.951 142.883C168.629 141.699 168.051 140.662 167.218 139.772C166.394 138.892 165.357 138.205 164.107 137.713C162.867 137.23 161.451 136.988 159.86 136.988ZM194.704 159.247V155.838H182.786V159.247H194.704ZM185.982 164.474H190.229V143.835C190.229 143.011 190.353 142.391 190.599 141.974C190.845 141.567 191.162 141.287 191.55 141.136C191.948 140.994 192.379 140.923 192.843 140.923C193.184 140.923 193.482 140.947 193.738 140.994C193.994 141.041 194.192 141.079 194.335 141.108L195.102 137.599C194.855 137.504 194.505 137.41 194.05 137.315C193.596 137.211 193.028 137.154 192.346 137.144C191.228 137.126 190.187 137.324 189.221 137.741C188.255 138.158 187.474 138.802 186.877 139.673C186.281 140.544 185.982 141.638 185.982 142.954V164.474ZM204.118 150.383V137.429H199.871V166.519H204.061V155.696H204.331C204.842 156.87 205.624 157.803 206.675 158.494C207.726 159.185 209.099 159.531 210.794 159.531C212.29 159.531 213.597 159.223 214.714 158.608C215.841 157.992 216.713 157.073 217.328 155.852C217.953 154.64 218.266 153.125 218.266 151.306V137.429H214.018V150.795C214.018 152.395 213.607 153.636 212.783 154.517C211.959 155.407 210.813 155.852 209.345 155.852C208.341 155.852 207.442 155.639 206.646 155.213C205.86 154.787 205.24 154.162 204.786 153.338C204.34 152.523 204.118 151.538 204.118 150.383ZM233.337 136.988C231.187 136.988 229.336 137.448 227.783 138.366C226.239 139.294 225.046 140.596 224.203 142.272C223.37 143.958 222.953 145.932 222.953 148.196C222.953 150.43 223.37 152.4 224.203 154.105C225.046 155.809 226.22 157.14 227.726 158.096C229.241 159.053 231.012 159.531 233.038 159.531C234.269 159.531 235.463 159.327 236.618 158.92C237.773 158.513 238.81 157.874 239.729 157.002C240.647 156.131 241.372 155 241.902 153.608C242.432 152.225 242.697 150.544 242.697 148.565V147.059H225.354V150.241H238.536C238.536 151.359 238.308 152.348 237.854 153.21C237.399 154.081 236.76 154.768 235.936 155.269C235.122 155.771 234.165 156.022 233.067 156.022C231.874 156.022 230.832 155.729 229.942 155.142C229.061 154.564 228.379 153.806 227.896 152.869C227.423 151.941 227.186 150.932 227.186 149.843V147.358C227.186 145.899 227.442 144.659 227.953 143.636C228.474 142.613 229.198 141.832 230.126 141.292C231.054 140.762 232.139 140.497 233.379 140.497C234.184 140.497 234.918 140.61 235.581 140.838C236.244 141.074 236.817 141.425 237.3 141.889C237.783 142.353 238.152 142.926 238.408 143.608L242.428 142.883C242.106 141.699 241.528 140.662 240.695 139.772C239.871 138.892 238.834 138.205 237.584 137.713C236.343 137.23 234.928 136.988 233.337 136.988ZM258.337 166.519H263.663L272.925 143.906H273.266L282.527 166.519H287.854V137.429H283.678V158.48H283.408L274.828 137.471H271.362L262.783 158.494H262.513V137.429H258.337V166.519ZM300.244 136.946C298.861 136.946 297.611 137.201 296.494 137.713C295.376 138.234 294.491 138.986 293.837 139.971C293.193 140.956 292.871 142.163 292.871 143.593C292.871 144.824 293.108 145.838 293.582 146.633C294.055 147.429 294.694 148.058 295.499 148.522C296.304 148.986 297.204 149.337 298.198 149.573C299.192 149.81 300.206 149.99 301.238 150.113C302.545 150.265 303.605 150.388 304.42 150.483C305.234 150.587 305.826 150.752 306.195 150.98C306.565 151.207 306.749 151.576 306.749 152.088V152.187C306.749 153.428 306.399 154.389 305.698 155.071C305.007 155.752 303.975 156.093 302.602 156.093C301.172 156.093 300.045 155.776 299.221 155.142C298.406 154.517 297.843 153.821 297.531 153.054L293.539 153.963C294.013 155.288 294.704 156.359 295.613 157.173C296.531 157.997 297.587 158.593 298.781 158.963C299.974 159.341 301.228 159.531 302.545 159.531C303.416 159.531 304.339 159.427 305.315 159.218C306.299 159.019 307.218 158.65 308.07 158.11C308.932 157.571 309.638 156.799 310.187 155.795C310.736 154.801 311.011 153.508 311.011 151.917V137.429H306.863V140.412H306.692C306.418 139.862 306.006 139.323 305.457 138.792C304.907 138.262 304.202 137.822 303.34 137.471C302.478 137.121 301.446 136.946 300.244 136.946ZM301.167 140.355C302.341 140.355 303.345 140.587 304.178 141.051C305.021 141.515 305.66 142.121 306.096 142.869C306.541 143.627 306.763 144.436 306.763 145.298V148.11C306.612 147.959 306.318 147.817 305.883 147.684C305.457 147.561 304.969 147.452 304.42 147.358C303.871 147.272 303.335 147.192 302.815 147.116C302.294 147.05 301.858 146.993 301.508 146.946C300.684 146.841 299.931 146.666 299.249 146.42C298.577 146.174 298.037 145.819 297.63 145.355C297.232 144.9 297.033 144.294 297.033 143.537C297.033 142.485 297.422 141.69 298.198 141.15C298.975 140.62 299.964 140.355 301.167 140.355ZM316.668 137.429V159.247H320.773V155.781H321C321.398 156.955 322.098 157.878 323.102 158.551C324.116 159.233 325.261 159.573 326.54 159.573C326.805 159.573 327.117 159.564 327.477 159.545C327.847 159.526 328.135 159.502 328.344 159.474V155.412C328.173 155.459 327.87 155.511 327.435 155.568C326.999 155.634 326.563 155.667 326.128 155.667C325.124 155.667 324.229 155.454 323.443 155.028C322.667 154.611 322.051 154.029 321.597 153.281C321.142 152.542 320.915 151.699 320.915 150.752V137.429H316.668ZM335.925 144.829L335.897 150.014H336.636L345.329 159.247H350.414L340.499 148.735H339.832L335.925 144.829ZM332.019 137.429V166.519H336.266V137.429H332.019ZM345.798 137.429L337.985 147.798L340.911 150.767L351.011 137.429H345.798ZM362.79 136.988C360.64 136.988 358.789 137.448 357.236 138.366C355.692 139.294 354.499 140.596 353.656 142.272C352.823 143.958 352.406 145.932 352.406 148.196C352.406 150.43 352.823 152.4 353.656 154.105C354.499 155.809 355.673 157.14 357.179 158.096C358.694 159.053 360.465 159.531 362.491 159.531C363.723 159.531 364.916 159.327 366.071 158.92C367.226 158.513 368.263 157.874 369.182 157.002C370.1 156.131 370.825 155 371.355 153.608C371.885 152.225 372.151 150.544 372.151 148.565V147.059H354.807V150.241H367.989C367.989 151.359 367.761 152.348 367.307 153.21C366.852 154.081 366.213 154.768 365.389 155.269C364.575 155.771 363.618 156.022 362.52 156.022C361.327 156.022 360.285 155.729 359.395 155.142C358.514 154.564 357.832 153.806 357.349 152.869C356.876 151.941 356.639 150.932 356.639 149.843V147.358C356.639 145.899 356.895 144.659 357.406 143.636C357.927 142.613 358.652 141.832 359.58 141.292C360.508 140.762 361.592 140.497 362.832 140.497C363.637 140.497 364.371 140.61 365.034 140.838C365.697 141.074 366.27 141.425 366.753 141.889C367.236 142.353 367.605 142.926 367.861 143.608L371.881 142.883C371.559 141.699 370.981 140.662 370.148 139.772C369.324 138.892 368.287 138.205 367.037 137.713C365.796 137.23 364.381 136.988 362.79 136.988ZM387.048 159.247V155.838H375.13V159.247H387.048ZM378.326 164.474H382.573V143.835C382.573 143.011 382.696 142.391 382.942 141.974C383.189 141.567 383.506 141.287 383.894 141.136C384.292 140.994 384.723 140.923 385.187 140.923C385.528 140.923 385.826 140.947 386.082 140.994C386.337 141.041 386.536 141.079 386.678 141.108L387.445 137.599C387.199 137.504 386.849 137.41 386.394 137.315C385.94 137.211 385.371 137.154 384.69 137.144C383.572 137.126 382.531 137.324 381.565 137.741C380.599 138.158 379.817 138.802 379.221 139.673C378.624 140.544 378.326 141.638 378.326 142.954V164.474ZM407.744 153.92L403.894 153.238C403.733 153.731 403.478 154.199 403.127 154.644C402.786 155.09 402.322 155.454 401.735 155.738C401.148 156.022 400.414 156.164 399.533 156.164C398.331 156.164 397.327 155.894 396.522 155.355C395.717 154.824 395.315 154.138 395.315 153.295C395.315 152.566 395.585 151.979 396.124 151.534C396.664 151.089 397.535 150.724 398.738 150.44L402.204 149.644C404.211 149.18 405.708 148.466 406.692 147.5C407.677 146.534 408.17 145.279 408.17 143.735C408.17 142.429 407.791 141.264 407.033 140.241C406.285 139.228 405.239 138.432 403.894 137.855C402.559 137.277 401.011 136.988 399.249 136.988C396.806 136.988 394.813 137.509 393.269 138.551C391.726 139.602 390.779 141.093 390.428 143.025L394.533 143.65C394.789 142.58 395.315 141.77 396.11 141.221C396.906 140.681 397.942 140.412 399.221 140.412C400.613 140.412 401.726 140.7 402.559 141.278C403.392 141.865 403.809 142.58 403.809 143.423C403.809 144.105 403.553 144.678 403.042 145.142C402.54 145.606 401.768 145.956 400.727 146.193L397.033 147.002C394.997 147.466 393.492 148.205 392.516 149.218C391.55 150.232 391.067 151.515 391.067 153.068C391.067 154.356 391.427 155.483 392.147 156.448C392.867 157.414 393.861 158.167 395.13 158.707C396.399 159.256 397.853 159.531 399.491 159.531C401.849 159.531 403.705 159.019 405.059 157.997C406.413 156.984 407.308 155.625 407.744 153.92ZM428.156 137.429L421.735 159.247H426.124L430.4 143.224H430.613L434.903 159.247H439.292L443.553 143.295H443.766L448.013 159.247H452.403L445.996 137.429H441.664L437.232 153.181H436.906L432.474 137.429H428.156ZM456.433 137.429V159.247H460.68V137.429H456.433ZM458.578 162.613C457.839 162.613 457.205 162.859 456.675 163.352C456.154 163.854 455.893 164.45 455.893 165.142C455.893 165.842 456.154 166.439 456.675 166.931C457.205 167.433 457.839 167.684 458.578 167.684C459.317 167.684 459.946 167.433 460.467 166.931C460.998 166.439 461.263 165.842 461.263 165.142C461.263 164.45 460.998 163.854 460.467 163.352C459.946 162.859 459.317 162.613 458.578 162.613ZM476.579 159.247V155.838H464.661V159.247H476.579ZM467.857 164.474H472.104V143.835C472.104 143.011 472.228 142.391 472.474 141.974C472.72 141.567 473.037 141.287 473.425 141.136C473.823 140.994 474.254 140.923 474.718 140.923C475.059 140.923 475.357 140.947 475.613 140.994C475.869 141.041 476.067 141.079 476.21 141.108L476.977 137.599C476.73 137.504 476.38 137.41 475.925 137.315C475.471 137.211 474.903 137.154 474.221 137.144C473.103 137.126 472.062 137.324 471.096 137.741C470.13 138.158 469.349 138.802 468.752 139.673C468.156 140.544 467.857 141.638 467.857 142.954V164.474ZM485.993 150.383V137.429H481.746V166.519H485.936V155.696H486.206C486.717 156.87 487.499 157.803 488.55 158.494C489.601 159.185 490.974 159.531 492.669 159.531C494.165 159.531 495.472 159.223 496.589 158.608C497.716 157.992 498.588 157.073 499.203 155.852C499.828 154.64 500.141 153.125 500.141 151.306V137.429H495.893V150.795C495.893 152.395 495.482 153.636 494.658 154.517C493.834 155.407 492.688 155.852 491.22 155.852C490.216 155.852 489.317 155.639 488.521 155.213C487.735 154.787 487.115 154.162 486.661 153.338C486.215 152.523 485.993 151.538 485.993 150.383ZM540.897 157.059H536.465C536.295 158.006 535.978 158.84 535.513 159.559C535.049 160.279 534.481 160.89 533.809 161.392C533.137 161.894 532.384 162.272 531.55 162.528C530.727 162.784 529.851 162.912 528.923 162.912C527.246 162.912 525.746 162.49 524.42 161.647C523.103 160.805 522.062 159.569 521.295 157.94C520.537 156.311 520.158 154.323 520.158 151.974C520.158 149.607 520.537 147.609 521.295 145.98C522.062 144.351 523.108 143.12 524.434 142.287C525.76 141.453 527.251 141.037 528.908 141.037C529.827 141.037 530.698 141.16 531.522 141.406C532.355 141.662 533.108 142.036 533.781 142.528C534.453 143.02 535.021 143.622 535.485 144.332C535.959 145.052 536.285 145.876 536.465 146.804L540.897 146.789C540.66 145.359 540.201 144.043 539.519 142.841C538.847 141.647 537.98 140.615 536.92 139.744C535.869 138.882 534.666 138.215 533.312 137.741C531.958 137.268 530.48 137.031 528.88 137.031C526.361 137.031 524.117 137.627 522.147 138.821C520.177 140.023 518.624 141.742 517.488 143.977C516.361 146.212 515.798 148.877 515.798 151.974C515.798 155.08 516.366 157.746 517.502 159.971C518.638 162.206 520.192 163.92 522.161 165.113C524.131 166.316 526.371 166.917 528.88 166.917C530.424 166.917 531.863 166.695 533.198 166.25C534.543 165.814 535.75 165.17 536.82 164.318C537.89 163.475 538.776 162.443 539.477 161.221C540.177 160.009 540.651 158.622 540.897 157.059ZM554.999 136.988C552.953 136.988 551.168 137.457 549.643 138.394C548.119 139.332 546.935 140.644 546.092 142.329C545.25 144.015 544.828 145.984 544.828 148.238C544.828 150.502 545.25 152.481 546.092 154.176C546.935 155.871 548.119 157.187 549.643 158.125C551.168 159.062 552.953 159.531 554.999 159.531C557.044 159.531 558.829 159.062 560.354 158.125C561.878 157.187 563.062 155.871 563.905 154.176C564.748 152.481 565.169 150.502 565.169 148.238C565.169 145.984 564.748 144.015 563.905 142.329C563.062 140.644 561.878 139.332 560.354 138.394C558.829 137.457 557.044 136.988 554.999 136.988ZM555.013 140.554C556.339 140.554 557.437 140.904 558.308 141.605C559.179 142.305 559.823 143.238 560.24 144.403C560.666 145.568 560.879 146.851 560.879 148.252C560.879 149.644 560.666 150.923 560.24 152.088C559.823 153.262 559.179 154.204 558.308 154.914C557.437 155.625 556.339 155.98 555.013 155.98C553.678 155.98 552.57 155.625 551.689 154.914C550.818 154.204 550.169 153.262 549.743 152.088C549.326 150.923 549.118 149.644 549.118 148.252C549.118 146.851 549.326 145.568 549.743 144.403C550.169 143.238 550.818 142.305 551.689 141.605C552.57 140.904 553.678 140.554 555.013 140.554ZM574.157 150.383V137.429H569.91V159.247H573.987V155.696H574.256C574.758 156.851 575.544 157.779 576.614 158.48C577.694 159.18 579.053 159.531 580.691 159.531C582.178 159.531 583.48 159.218 584.597 158.593C585.715 157.978 586.581 157.059 587.197 155.838C587.812 154.616 588.12 153.106 588.12 151.306V137.429H583.873V150.795C583.873 152.377 583.461 153.612 582.637 154.502C581.813 155.402 580.682 155.852 579.242 155.852C578.257 155.852 577.381 155.639 576.614 155.213C575.857 154.787 575.255 154.162 574.81 153.338C574.375 152.523 574.157 151.538 574.157 150.383ZM604.2 159.247V155.838H591.87V159.247H604.2ZM595.251 137.429V161.775C595.251 163.139 595.549 164.27 596.146 165.17C596.742 166.079 597.533 166.756 598.518 167.201C599.503 167.656 600.573 167.883 601.728 167.883C602.58 167.883 603.309 167.812 603.915 167.67C604.522 167.537 604.971 167.414 605.265 167.301L604.271 163.863C604.072 163.92 603.816 163.986 603.504 164.062C603.191 164.147 602.812 164.19 602.367 164.19C601.335 164.19 600.596 163.934 600.151 163.423C599.716 162.912 599.498 162.173 599.498 161.207V137.429H595.251ZM608.582 137.429V159.247H612.829V137.429H608.582ZM610.727 162.613C609.988 162.613 609.353 162.859 608.823 163.352C608.302 163.854 608.042 164.45 608.042 165.142C608.042 165.842 608.302 166.439 608.823 166.931C609.353 167.433 609.988 167.684 610.727 167.684C611.465 167.684 612.095 167.433 612.616 166.931C613.146 166.439 613.411 165.842 613.411 165.142C613.411 164.45 613.146 163.854 612.616 163.352C612.095 162.859 611.465 162.613 610.727 162.613ZM626.71 137.002C624.949 137.002 623.377 137.452 621.994 138.352C620.621 139.261 619.542 140.554 618.756 142.23C617.979 143.915 617.591 145.937 617.591 148.295C617.591 150.653 617.984 152.67 618.77 154.346C619.565 156.022 620.654 157.305 622.037 158.196C623.42 159.086 624.987 159.531 626.739 159.531C628.093 159.531 629.182 159.304 630.006 158.849C630.839 158.404 631.483 157.883 631.938 157.287C632.402 156.69 632.761 156.164 633.017 155.71H633.273V166.519H637.52V137.429H633.372V140.823H633.017C632.761 140.359 632.392 139.829 631.909 139.233C631.436 138.636 630.782 138.115 629.949 137.67C629.116 137.225 628.036 137.002 626.71 137.002ZM627.648 140.625C628.869 140.625 629.902 140.947 630.744 141.591C631.597 142.244 632.241 143.148 632.676 144.304C633.121 145.459 633.344 146.804 633.344 148.338C633.344 149.853 633.126 151.179 632.69 152.315C632.255 153.451 631.616 154.337 630.773 154.971C629.93 155.606 628.888 155.923 627.648 155.923C626.369 155.923 625.304 155.591 624.452 154.929C623.599 154.266 622.955 153.361 622.52 152.216C622.094 151.07 621.881 149.777 621.881 148.338C621.881 146.879 622.098 145.568 622.534 144.403C622.97 143.238 623.614 142.315 624.466 141.633C625.328 140.961 626.388 140.625 627.648 140.625ZM652.985 136.988C650.835 136.988 648.984 137.448 647.431 138.366C645.888 139.294 644.694 140.596 643.852 142.272C643.018 143.958 642.602 145.932 642.602 148.196C642.602 150.43 643.018 152.4 643.852 154.105C644.694 155.809 645.869 157.14 647.374 158.096C648.889 159.053 650.66 159.531 652.687 159.531C653.918 159.531 655.111 159.327 656.266 158.92C657.422 158.513 658.459 157.874 659.377 157.002C660.296 156.131 661.02 155 661.55 153.608C662.081 152.225 662.346 150.544 662.346 148.565V147.059H645.002V150.241H658.184C658.184 151.359 657.957 152.348 657.502 153.21C657.048 154.081 656.408 154.768 655.585 155.269C654.77 155.771 653.814 156.022 652.715 156.022C651.522 156.022 650.48 155.729 649.59 155.142C648.71 154.564 648.028 153.806 647.545 152.869C647.071 151.941 646.835 150.932 646.835 149.843V147.358C646.835 145.899 647.09 144.659 647.602 143.636C648.122 142.613 648.847 141.832 649.775 141.292C650.703 140.762 651.787 140.497 653.028 140.497C653.833 140.497 654.567 140.61 655.229 140.838C655.892 141.074 656.465 141.425 656.948 141.889C657.431 142.353 657.8 142.926 658.056 143.608L662.076 142.883C661.754 141.699 661.176 140.662 660.343 139.772C659.519 138.892 658.482 138.205 657.232 137.713C655.992 137.23 654.576 136.988 652.985 136.988ZM671.305 150.383V137.429H667.058V159.247H671.135V155.696H671.405C671.907 156.851 672.693 157.779 673.763 158.48C674.842 159.18 676.201 159.531 677.839 159.531C679.326 159.531 680.628 159.218 681.746 158.593C682.863 157.978 683.73 157.059 684.345 155.838C684.961 154.616 685.268 153.106 685.268 151.306V137.429H681.021V150.795C681.021 152.377 680.609 153.612 679.786 154.502C678.962 155.402 677.83 155.852 676.391 155.852C675.406 155.852 674.53 155.639 673.763 155.213C673.005 154.787 672.404 154.162 671.959 153.338C671.523 152.523 671.305 151.538 671.305 150.383ZM700.155 136.988C698.043 136.988 696.225 137.466 694.7 138.423C693.185 139.389 692.02 140.719 691.206 142.414C690.392 144.109 689.984 146.051 689.984 148.238C689.984 150.454 690.401 152.41 691.234 154.105C692.068 155.809 693.242 157.14 694.757 158.096C696.272 159.053 698.057 159.531 700.112 159.531C701.769 159.531 703.247 159.223 704.544 158.608C705.841 158.002 706.888 157.149 707.683 156.051C708.488 154.952 708.966 153.669 709.118 152.201H704.984C704.757 153.224 704.236 154.105 703.422 154.843C702.617 155.582 701.537 155.951 700.183 155.951C699 155.951 697.963 155.639 697.072 155.014C696.192 154.398 695.505 153.518 695.013 152.372C694.52 151.235 694.274 149.891 694.274 148.338C694.274 146.747 694.516 145.374 694.999 144.218C695.482 143.063 696.163 142.168 697.044 141.534C697.934 140.899 698.981 140.582 700.183 140.582C700.988 140.582 701.717 140.729 702.371 141.022C703.034 141.325 703.588 141.756 704.033 142.315C704.487 142.874 704.804 143.546 704.984 144.332H709.118C708.966 142.921 708.507 141.662 707.74 140.554C706.973 139.446 705.946 138.574 704.658 137.94C703.379 137.305 701.878 136.988 700.155 136.988ZM723.063 136.988C720.914 136.988 719.062 137.448 717.509 138.366C715.966 139.294 714.772 140.596 713.93 142.272C713.096 143.958 712.68 145.932 712.68 148.196C712.68 150.43 713.096 152.4 713.93 154.105C714.772 155.809 715.947 157.14 717.452 158.096C718.968 159.053 720.738 159.531 722.765 159.531C723.996 159.531 725.189 159.327 726.344 158.92C727.5 158.513 728.537 157.874 729.455 157.002C730.374 156.131 731.098 155 731.629 153.608C732.159 152.225 732.424 150.544 732.424 148.565V147.059H715.08V150.241H728.262C728.262 151.359 728.035 152.348 727.58 153.21C727.126 154.081 726.487 154.768 725.663 155.269C724.848 155.771 723.892 156.022 722.793 156.022C721.6 156.022 720.558 155.729 719.668 155.142C718.788 154.564 718.106 153.806 717.623 152.869C717.149 151.941 716.913 150.932 716.913 149.843V147.358C716.913 145.899 717.168 144.659 717.68 143.636C718.201 142.613 718.925 141.832 719.853 141.292C720.781 140.762 721.865 140.497 723.106 140.497C723.911 140.497 724.645 140.61 725.308 140.838C725.97 141.074 726.543 141.425 727.026 141.889C727.509 142.353 727.879 142.926 728.134 143.608L732.154 142.883C731.832 141.699 731.254 140.662 730.421 139.772C729.597 138.892 728.56 138.205 727.31 137.713C726.07 137.23 724.654 136.988 723.063 136.988Z" fill="white" fill-opacity="0.8" shape-rendering="crispEdges"/>
</g>
</g>
</g>
<defs>
<filter id="filter0_d_14_77" x="0.19603" y="29.5455" width="736.228" height="53.0909" filterUnits="userSpaceOnUse" color-interpolation-filters="sRGB">
<feFlood flood-opacity="0" result="BackgroundImageFix"/>
<feColorMatrix in="SourceAlpha" type="matrix" values="0 0 0 0 0 0 0 0 0 0 0 0 0 0 0 0 0 0 127 0" result="hardAlpha"/>
<feOffset dy="10"/>
<feGaussianBlur stdDeviation="2"/>
<feComposite in2="hardAlpha" operator="out"/>
<feColorMatrix type="matrix" values="0 0 0 0 1 0 0 0 0 1 0 0 0 0 1 0 0 0 0.1 0"/>
<feBlend mode="normal" in2="BackgroundImageFix" result="effect1_dropShadow_14_77"/>
<feBlend mode="normal" in="SourceGraphic" in2="effect1_dropShadow_14_77" result="shape"/>
</filter>
<filter id="filter1_i_14_77" x="4.19603" y="128.792" width="728.228" height="39.0909" filterUnits="userSpaceOnUse" color-interpolation-filters="sRGB">
<feFlood flood-opacity="0" result="BackgroundImageFix"/>
<feBlend mode="normal" in="SourceGraphic" in2="BackgroundImageFix" result="shape"/>
<feColorMatrix in="SourceAlpha" type="matrix" values="0 0 0 0 0 0 0 0 0 0 0 0 0 0 0 0 0 0 127 0" result="hardAlpha"/>
<feOffset/>
<feGaussianBlur stdDeviation="3"/>
<feComposite in2="hardAlpha" operator="arithmetic" k2="-1" k3="1"/>
<feColorMatrix type="matrix" values="0 0 0 0 0 0 0 0 0 0 0 0 0 0 0 0 0 0 1 0"/>
<feBlend mode="normal" in2="shape" result="effect1_innerShadow_14_77"/>
</filter>
<filter id="filter2_d_14_77" x="0.19603" y="128.792" width="736.228" height="53.0909" filterUnits="userSpaceOnUse" color-interpolation-filters="sRGB">
<feFlood flood-opacity="0" result="BackgroundImageFix"/>
<feColorMatrix in="SourceAlpha" type="matrix" values="0 0 0 0 0 0 0 0 0 0 0 0 0 0 0 0 0 0 127 0" result="hardAlpha"/>
<feOffset dy="10"/>
<feGaussianBlur stdDeviation="2"/>
<feComposite in2="hardAlpha" operator="out"/>
<feColorMatrix type="matrix" values="0 0 0 0 1 0 0 0 0 1 0 0 0 0 1 0 0 0 0.1 0"/>
<feBlend mode="normal" in2="BackgroundImageFix" result="effect1_dropShadow_14_77"/>
<feBlend mode="normal" in="SourceGraphic" in2="effect1_dropShadow_14_77" result="shape"/>
</filter>
<linearGradient id="paint0_linear_14_77" x1="370.5" y1="123" x2="370.5" y2="191" gradientUnits="userSpaceOnUse">
<stop stop-color="white"/>
<stop offset="1" stop-opacity="0"/>
</linearGradient>
</defs>
</svg>
