<svg width="366" height="334" viewBox="0 0 366 334" fill="none" xmlns="http://www.w3.org/2000/svg">
<mask id="mask0_14_78" style="mask-type:luminance" maskUnits="userSpaceOnUse" x="5" y="0" width="358" height="178">
<path d="M5 0H363V178H5V0Z" fill="white"/>
</mask>
<g mask="url(#mask0_14_78)">
<path fill-rule="evenodd" clip-rule="evenodd" d="M244.396 20.0179V30.9219H227.277V62.1158C227.277 68.7423 230.857 72.0604 236.75 72.0604C239.952 72.0189 243.134 71.5285 246.219 70.6016L247.788 81.6392C243.689 83.071 239.402 83.7741 235.093 83.7211C222.921 83.7211 215.32 76.4072 215.32 63.718V30.9318H204.975V20.0278H215.509V0H227.176V20.0179H244.396ZM178.648 44.7584C171.341 43.1265 168.624 41.1781 168.624 37.2912C168.624 32.6824 172.971 29.9724 181.742 29.9724C187.791 29.9724 193.785 31.1988 199.399 33.617L200.67 22.4262C194.436 19.8626 187.809 18.5876 181.136 18.6679C166.619 18.6679 156.943 26.4614 156.943 37.039C156.943 46.6425 162.355 52.9327 172.594 55.158L181.186 57.0421C188.686 58.674 191.839 60.9487 191.839 65.162C191.839 69.9786 187.782 72.3324 179.08 72.3324C172.256 72.2398 165.515 70.7059 159.238 67.8175L157.788 78.9589C162.814 81.8864 171.025 83.6172 179.855 83.6172C193.941 83.6172 203.493 77.5842 203.493 64.9691C203.493 54.1294 197.205 48.7936 185.409 46.2024L178.648 44.7435V44.7584Z" fill="#5A2989"/>
<path fill-rule="evenodd" clip-rule="evenodd" d="M276.878 71.5956C274.37 71.6714 271.873 71.1917 269.544 70.1862C266.029 68.6685 263.032 66.0253 260.956 62.6135C258.88 59.2017 257.826 55.1857 257.936 51.1079C257.95 47.0727 259.07 43.1462 261.149 39.7984C262.7 37.2994 264.746 35.2024 267.14 33.6587C269.534 32.115 272.216 31.1631 274.992 30.8716C277.769 30.5802 280.571 30.9565 283.197 31.9735C285.822 32.9904 288.206 34.6226 290.175 36.7522C292.813 39.6038 294.609 43.2326 295.338 47.1818C296.066 51.1309 295.694 55.224 294.269 58.9459C292.855 62.6672 290.449 65.8536 287.356 68.1024C284.262 70.3512 280.619 71.5617 276.887 71.5807L276.878 71.5956ZM276.878 18.7173C259.217 18.7173 246.012 32.9395 246.012 51.2019C246.012 69.4593 259.203 83.6864 276.864 83.6864C294.526 83.6864 307.689 69.4593 307.689 51.1969C307.689 32.9395 294.526 18.7173 276.878 18.7173Z" fill="#5A2989"/>
<path fill-rule="evenodd" clip-rule="evenodd" d="M317.653 20.0181L332.708 41.9745L347.757 20.0181H361.54L340.134 50.5345L362.022 82.3811H348.239L332.708 59.05L317.158 82.3811H303.365L325.263 50.5345L303.847 20.0181H317.653Z" fill="#5A2989"/>
<path d="M123.957 72.1149C121.428 72.1803 118.913 71.693 116.564 70.6825C114.215 69.6719 112.08 68.1591 110.289 66.2352C108.497 64.3113 107.086 62.0163 106.14 59.4887C105.194 56.961 104.733 54.2531 104.786 51.5284C104.786 40.0309 112.758 30.2989 123.943 30.2742C135.115 30.2742 142.578 40.0161 142.578 51.5234C142.578 63.0307 135.142 72.1149 123.966 72.1149H123.957ZM125.394 18.7273C115.526 18.7273 108.999 22.6191 104.698 28.5285V20.0279H92.7284V108.373H104.698V73.8309C108.999 79.676 115.526 83.642 125.394 83.642C141.894 83.642 154.538 70.6561 154.538 51.474C154.538 32.2868 141.894 18.7273 125.394 18.7273Z" fill="#5A2989"/>
<path fill-rule="evenodd" clip-rule="evenodd" d="M31.1753 53.4373C36.2351 49.5989 40.345 44.4831 43.1454 38.5376V55.1433C43.1454 65.4786 48.4006 71.4524 57.2909 71.4524C66.1813 71.4524 73.6213 65.4885 73.6213 55.1433V20.0576H85.6143V82.4108H73.5754V74.5332C71.6385 77.7228 66.1446 83.6817 55.4459 83.6817C39.6067 83.6817 31.212 73.0249 31.212 57.8879L31.1891 53.4274L31.1753 53.4373Z" fill="#5A2989"/>
<path d="M5 48.0616V60.5728C15.0807 60.5713 24.7563 56.2976 31.9372 48.6748C35.473 44.9343 38.2818 40.4724 40.1999 35.5497C42.1179 30.6269 43.1068 25.3419 43.1086 20.0029H31.3681C31.3591 23.693 30.6714 27.3445 29.3447 30.7465C28.0181 34.1484 26.0788 37.2334 23.6389 39.823C18.6681 45.1039 11.9672 48.0636 4.98623 48.0616H5ZM35.329 129.335V153.853H31.212V129.34H35.329V129.335ZM42.2412 143.077V153.858H38.216V135.462H42.0576V138.592H42.2641C42.6497 137.564 43.2785 136.743 44.1459 136.129C45.0042 135.516 46.0828 135.22 47.3496 135.22C48.5337 135.22 49.5618 135.492 50.4293 136.026C51.3105 136.57 51.9898 137.351 52.4717 138.379C52.9536 139.408 53.1969 140.654 53.1831 142.128V153.843H49.1625V142.805C49.1625 141.584 48.8734 140.62 48.2813 139.917C47.6846 139.225 46.8768 138.879 45.8395 138.879C45.1863 138.868 44.5414 139.038 43.9669 139.373C43.4205 139.706 42.9756 140.202 42.6864 140.803C42.3656 141.506 42.2081 142.284 42.2274 143.067L42.2412 143.077ZM70.5186 135.467L64.4418 153.853H59.9943L53.9267 135.472H58.2135L62.1377 149.135H62.3213L66.2593 135.472H70.5324H70.5232L70.5186 135.467ZM78.849 154.209C77.3033 154.249 75.7753 153.848 74.4199 153.047C73.1821 152.287 72.1844 151.145 71.5559 149.768C70.8603 148.207 70.5174 146.49 70.5553 144.759C70.5553 142.83 70.8904 141.208 71.5559 139.774C72.2214 138.34 73.1623 137.222 74.3694 136.416C75.6538 135.591 77.1293 135.176 78.6241 135.22C79.6751 135.22 80.6619 135.403 81.6074 135.764C82.5791 136.138 83.4602 136.743 84.1855 137.534C84.9109 138.325 85.4619 139.281 85.7978 140.333C86.2109 141.505 86.4266 142.899 86.4266 144.511V145.837H72.4371V142.919H82.5713C82.5823 142.144 82.4118 141.379 82.0756 140.694C81.7491 140.036 81.2574 139.492 80.6566 139.122C80.0559 138.752 79.3705 138.571 78.6792 138.602C77.9173 138.585 77.1673 138.808 76.522 139.245C75.9093 139.656 75.4088 140.234 75.0716 140.921C74.7236 141.617 74.5407 142.395 74.5392 143.186V145.733C74.5392 146.801 74.7228 147.726 75.0854 148.482C75.4226 149.21 75.9509 149.816 76.6046 150.223C77.3068 150.638 78.0988 150.845 78.8995 150.821C79.4778 150.821 80.0102 150.732 80.4967 150.549C80.954 150.382 81.3732 150.113 81.7267 149.758C82.0843 149.4 82.354 148.951 82.5116 148.453L86.266 148.913C86.0273 149.976 85.5775 150.915 84.9166 151.707C84.2511 152.498 83.402 153.116 82.3785 153.556C81.3504 154.001 80.1616 154.209 78.849 154.209ZM101.922 140.318L98.2498 140.748C98.1356 140.318 97.9362 139.92 97.6651 139.581C97.3941 139.242 97.0581 138.97 96.6801 138.785C96.18 138.556 95.6401 138.444 95.0967 138.459C94.358 138.432 93.6279 138.637 92.9946 139.047C92.43 139.438 92.15 139.942 92.1638 140.565C92.1638 141.099 92.3474 141.544 92.7146 141.871C93.091 142.207 93.7106 142.479 94.578 142.692L97.4879 143.364C99.1081 143.745 100.306 144.343 101.1 145.144C101.885 145.955 102.284 147.024 102.293 148.349C102.293 149.506 101.972 150.525 101.357 151.41C100.688 152.337 99.7981 153.051 98.7822 153.477C97.6807 153.971 96.4277 154.219 95.0003 154.219C92.9119 154.219 91.2367 153.754 89.9516 152.799C89.3353 152.349 88.8138 151.764 88.4209 151.083C88.0279 150.401 87.7722 149.638 87.6705 148.843L91.5947 148.443C91.7783 149.274 92.1501 149.897 92.7284 150.317C93.3113 150.747 94.0594 150.955 94.9911 150.955C95.9182 150.955 96.7168 150.747 97.2952 150.312C97.878 149.897 98.1672 149.368 98.1672 148.74C98.1701 148.492 98.1218 148.247 98.0257 148.022C97.9297 147.797 97.7883 147.598 97.6118 147.439C97.098 147.028 96.4997 146.757 95.8677 146.648L92.9624 145.98C91.3193 145.619 90.1076 144.991 89.3228 144.121C88.9319 143.68 88.6269 143.159 88.4259 142.589C88.2249 142.019 88.1319 141.412 88.1524 140.803C88.1524 139.665 88.4278 138.676 89.0107 137.845C89.589 137.015 90.4014 136.362 91.4386 135.907C92.4759 135.452 93.6876 135.215 95.0508 135.215C97.0565 135.215 98.6262 135.674 99.7828 136.599C100.93 137.524 101.646 138.76 101.922 140.318ZM112.735 135.467V138.825H102.927V135.462L112.735 135.467ZM105.341 131.066H109.362V148.334C109.362 148.923 109.449 149.363 109.619 149.674C109.76 149.964 109.995 150.187 110.28 150.302C110.555 150.401 110.862 150.47 111.188 150.47C111.419 150.471 111.649 150.449 111.877 150.406C112.038 150.375 112.199 150.34 112.359 150.302L113.033 153.685C112.269 153.958 111.47 154.103 110.665 154.115C109.737 154.159 108.811 153.99 107.948 153.62C107.164 153.28 106.495 152.69 106.029 151.929C105.536 151.066 105.292 150.064 105.327 149.051V131.071L105.341 131.066ZM121.226 153.853V129.34H129.763C131.516 129.34 132.976 129.666 134.174 130.314C135.358 130.967 136.262 131.891 136.882 133.063C137.497 134.231 137.8 135.61 137.8 137.173C137.8 138.736 137.483 140.115 136.868 141.262C136.234 142.434 135.28 143.366 134.137 143.933C132.944 144.551 131.47 144.867 129.717 144.867H123.64V141.183H129.162C130.19 141.183 131.021 141.025 131.672 140.728C132.281 140.462 132.791 139.985 133.123 139.373C133.456 138.697 133.619 137.938 133.595 137.173C133.616 136.395 133.449 135.625 133.109 134.938C132.781 134.307 132.267 133.811 131.649 133.528C130.849 133.176 129.989 133.013 129.125 133.049H125.343V153.858H121.226V153.853ZM132.976 142.741L138.621 153.853H134.018L128.482 142.741H132.99H132.98H132.976ZM142.027 132.851C141.416 132.86 140.827 132.611 140.384 132.159C140.165 131.95 139.991 131.693 139.872 131.406C139.753 131.118 139.693 130.807 139.695 130.492C139.695 129.844 139.925 129.295 140.384 128.84C140.827 128.387 141.416 128.139 142.027 128.148C142.669 128.148 143.22 128.385 143.679 128.84C144.138 129.31 144.368 129.854 144.368 130.507C144.368 131.16 144.138 131.704 143.679 132.159C143.234 132.613 142.64 132.862 142.027 132.851ZM140.007 153.853V135.472H144.033V153.858H140.007V153.853ZM154.176 161.132C152.912 161.162 151.653 160.949 150.458 160.504C149.517 160.154 148.662 159.579 147.957 158.823C147.358 158.167 146.907 157.372 146.639 156.498L150.265 155.549C150.673 156.439 151.373 157.133 152.23 157.497C152.762 157.735 153.428 157.853 154.235 157.853C155.374 157.853 156.328 157.552 157.077 156.953C157.825 156.355 158.201 155.376 158.201 154.026V150.535H157.994C157.788 150.98 157.49 151.449 157.086 151.919C156.644 152.426 156.109 152.828 155.516 153.101C154.744 153.442 153.913 153.606 153.079 153.581C151.775 153.581 150.577 153.245 149.513 152.582C148.414 151.872 147.533 150.83 146.979 149.585C146.35 148.26 146.034 146.593 146.034 144.591C146.034 142.583 146.35 140.867 146.979 139.472C147.53 138.178 148.408 137.078 149.513 136.298C150.582 135.579 151.819 135.205 153.079 135.22C154.079 135.22 154.901 135.403 155.557 135.764C156.205 136.129 156.714 136.555 157.1 137.069C157.485 137.573 157.774 138.058 157.981 138.503H158.201V135.452H162.162V154.145C162.162 155.717 161.813 157.018 161.106 158.046C160.382 159.094 159.395 159.897 158.261 160.361C157.054 160.885 155.69 161.132 154.153 161.132H154.176ZM154.213 150.184C154.986 150.213 155.748 149.975 156.388 149.506C157.011 149.027 157.486 148.356 157.751 147.582C158.068 146.752 158.224 145.733 158.224 144.566C158.224 143.394 158.068 142.39 157.765 141.52C157.504 140.717 157.034 140.013 156.411 139.492C155.774 138.992 155 138.735 154.213 138.76C153.34 138.76 152.569 139.008 151.964 139.512C151.342 140.052 150.874 140.77 150.614 141.584C150.311 142.454 150.155 143.443 150.155 144.561C150.155 145.683 150.311 146.672 150.614 147.518C150.878 148.303 151.353 148.987 151.977 149.481C152.629 149.966 153.408 150.212 154.199 150.184H154.213ZM168.936 143.077V153.858H164.916V129.33H168.854V138.587H169.056C169.429 137.582 170.079 136.724 170.919 136.129C171.764 135.531 172.829 135.22 174.132 135.22C175.316 135.22 176.353 135.492 177.235 136.026C178.116 136.56 178.795 137.336 179.291 138.365C179.773 139.393 180.016 140.659 180.016 142.143V153.853H175.991V142.815C175.991 141.579 175.702 140.62 175.11 139.927C174.518 139.235 173.696 138.889 172.631 138.889C171.968 138.88 171.313 139.05 170.726 139.383C170.166 139.712 169.708 140.21 169.409 140.817C169.079 141.516 168.916 142.293 168.936 143.077ZM191.21 135.467V138.825H181.402V135.462L191.21 135.467ZM183.821 131.066H187.842V148.334C187.816 148.797 187.903 149.259 188.094 149.674C188.236 149.965 188.473 150.189 188.76 150.302C189.051 150.411 189.356 150.467 189.664 150.47C189.895 150.471 190.125 150.449 190.352 150.406L190.839 150.302L191.513 153.685C190.749 153.958 189.95 154.103 189.145 154.115C188.217 154.159 187.291 153.99 186.428 153.62C185.642 153.28 184.972 152.69 184.505 151.929C184.013 151.065 183.77 150.064 183.807 149.051V131.071L183.821 131.066ZM197.889 150.495L197.746 151.81C197.636 152.814 197.457 153.838 197.191 154.881C196.925 155.92 196.645 156.889 196.365 157.759C196.08 158.63 195.851 159.332 195.667 159.827H192.95C193.06 159.332 193.193 158.684 193.372 157.839C193.556 157.003 193.739 156.058 193.905 155.015C194.077 153.96 194.194 152.895 194.253 151.825L194.327 150.485H197.879L197.889 150.495ZM210.937 129.335V153.853H206.816V129.34H210.937V129.335ZM217.859 143.077V153.858H213.833V135.462H217.675V138.592H217.881C218.267 137.564 218.896 136.743 219.763 136.129C220.626 135.516 221.7 135.22 222.967 135.22C224.151 135.22 225.179 135.492 226.047 136.026C226.928 136.57 227.607 137.351 228.089 138.379C228.571 139.408 228.814 140.654 228.8 142.128V153.843H224.78V142.805C224.78 141.584 224.491 140.62 223.899 139.917C223.302 139.225 222.494 138.879 221.457 138.879C220.804 138.868 220.159 139.038 219.584 139.373C219.038 139.706 218.593 140.202 218.304 140.803C217.983 141.506 217.825 142.284 217.845 143.067L217.859 143.077ZM246.136 135.467L240.059 153.853H235.616L229.539 135.467H233.826L237.75 149.13H237.934L241.872 135.467H246.145H246.136ZM254.471 154.209C252.924 154.25 251.394 153.849 250.037 153.047C248.799 152.287 247.802 151.145 247.173 149.768C246.478 148.207 246.135 146.49 246.173 144.759C246.173 142.83 246.508 141.208 247.173 139.774C247.839 138.34 248.78 137.222 249.987 136.416C251.198 135.61 252.607 135.22 254.241 135.22C255.292 135.22 256.279 135.403 257.225 135.764C258.196 136.138 259.078 136.743 259.803 137.534C260.528 138.325 261.079 139.281 261.415 140.333C261.828 141.505 262.044 142.899 262.044 144.511V145.837H248.054V142.919H258.189C258.2 142.144 258.029 141.379 257.693 140.694C257.366 140.036 256.875 139.492 256.274 139.122C255.673 138.752 254.988 138.571 254.297 138.602C253.535 138.585 252.785 138.808 252.139 139.245C251.527 139.656 251.026 140.234 250.689 140.921C250.341 141.617 250.158 142.395 250.157 143.186V145.733C250.157 146.801 250.34 147.726 250.703 148.482C251.04 149.21 251.568 149.816 252.222 150.223C252.924 150.638 253.716 150.845 254.517 150.821C255.1 150.821 255.628 150.732 256.114 150.549C256.571 150.382 256.991 150.113 257.344 149.758C257.702 149.4 257.972 148.951 258.129 148.453L261.888 148.913C261.645 149.976 261.199 150.915 260.534 151.707C259.868 152.498 259.019 153.116 257.996 153.556C256.968 154.001 255.788 154.209 254.471 154.209ZM277.539 140.318L273.867 140.748C273.753 140.318 273.554 139.92 273.282 139.581C273.011 139.242 272.675 138.97 272.297 138.785C271.797 138.556 271.257 138.444 270.714 138.459C269.975 138.432 269.245 138.637 268.612 139.047C268.047 139.438 267.767 139.942 267.781 140.565C267.781 141.099 267.965 141.544 268.332 141.871C268.708 142.207 269.328 142.479 270.195 142.692L273.105 143.364C274.725 143.745 275.923 144.343 276.717 145.144C277.502 145.955 277.902 147.024 277.911 148.349C277.911 149.506 277.589 150.525 276.974 151.41C276.307 152.336 275.418 153.051 274.404 153.477C273.303 153.971 272.045 154.219 270.618 154.219C268.529 154.219 266.854 153.754 265.569 152.799C264.953 152.349 264.432 151.764 264.039 151.082C263.646 150.401 263.39 149.638 263.288 148.843L267.212 148.443C267.396 149.274 267.767 149.897 268.346 150.317C268.929 150.747 269.677 150.955 270.608 150.955C271.536 150.955 272.334 150.747 272.912 150.312C273.495 149.897 273.785 149.368 273.785 148.74C273.787 148.492 273.739 148.247 273.643 148.022C273.547 147.797 273.406 147.598 273.229 147.439C272.715 147.028 272.117 146.757 271.485 146.648L268.58 145.98C266.937 145.619 265.73 144.991 264.94 144.121C264.549 143.68 264.244 143.159 264.043 142.589C263.842 142.019 263.749 141.412 263.77 140.803C263.77 139.665 264.045 138.676 264.628 137.845C265.206 137.015 266.019 136.362 267.056 135.907C268.093 135.452 269.305 135.215 270.668 135.215C272.674 135.215 274.244 135.674 275.4 136.599C276.548 137.524 277.264 138.76 277.539 140.318ZM288.352 135.467V138.825H278.544V135.462L288.352 135.467ZM280.963 131.066H284.984V148.334C284.984 148.923 285.066 149.363 285.236 149.674C285.379 149.965 285.615 150.188 285.901 150.302C286.192 150.411 286.498 150.467 286.806 150.47C287.036 150.471 287.267 150.449 287.494 150.406L287.976 150.302L288.651 153.685C287.886 153.958 287.088 154.103 286.282 154.115C285.356 154.158 284.432 153.989 283.57 153.62C282.784 153.28 282.113 152.69 281.647 151.929C281.155 151.065 280.912 150.064 280.949 149.051V131.071H280.958L280.963 131.066ZM315.542 129.335V153.853H311.87L301.144 137.158H300.951V153.853H296.83V129.34H300.515L311.228 146.054H311.434V129.34H315.542V129.335ZM325.883 154.204C324.212 154.204 322.762 153.813 321.545 153.017C320.324 152.228 319.338 151.078 318.704 149.704C318.011 148.15 317.668 146.442 317.704 144.719C317.704 142.82 318.043 141.154 318.704 139.725C319.37 138.29 320.325 137.183 321.545 136.387C322.766 135.595 324.212 135.2 325.883 135.2C327.549 135.2 328.999 135.595 330.215 136.387C331.436 137.183 332.391 138.29 333.056 139.72C333.722 141.154 334.057 142.82 334.057 144.714C334.057 146.618 333.722 148.285 333.056 149.704C332.419 151.076 331.434 152.224 330.215 153.017C328.999 153.813 327.549 154.204 325.883 154.204ZM325.906 150.732C326.727 150.756 327.53 150.471 328.178 149.926C328.813 149.353 329.285 148.599 329.541 147.751C329.844 146.841 329.986 145.822 329.986 144.704C330.001 143.666 329.851 142.632 329.541 141.648C329.282 140.797 328.811 140.039 328.178 139.458C327.535 138.902 326.728 138.616 325.906 138.651C325.073 138.624 324.257 138.909 323.597 139.458C322.964 140.039 322.492 140.797 322.234 141.648C321.924 142.632 321.774 143.666 321.789 144.704C321.789 145.827 321.931 146.841 322.234 147.751C322.49 148.599 322.962 149.353 323.597 149.926C324.212 150.455 324.974 150.732 325.906 150.732ZM339.106 153.853L334.287 135.467H338.381L341.378 148.403H341.534L344.604 135.467H348.662L351.732 148.324H351.897L354.858 135.467H358.966L354.133 153.853H349.942L346.743 141.426H346.514L343.31 153.853H339.106ZM360.549 154.115C360.225 154.12 359.904 154.055 359.605 153.923C359.305 153.791 359.033 153.596 358.805 153.348C358.572 153.106 358.389 152.813 358.267 152.489C358.145 152.166 358.088 151.818 358.098 151.469C358.098 150.757 358.328 150.144 358.81 149.625C359.037 149.378 359.308 149.183 359.607 149.051C359.906 148.92 360.226 148.854 360.549 148.858C361.224 148.858 361.77 149.115 362.247 149.625C362.484 149.86 362.671 150.147 362.799 150.465C362.926 150.784 362.99 151.127 362.986 151.474C362.972 152.169 362.709 152.831 362.252 153.321C361.795 153.811 361.18 154.092 360.535 154.105L360.549 154.115Z" fill="#5A2989"/>
</g>
<g filter="url(#filter0_d_14_78)">
<mask id="mask1_14_78" style="mask-type:alpha" maskUnits="userSpaceOnUse" x="4" y="206" width="358" height="124">
<rect x="4" y="206" width="358" height="124" fill="url(#paint0_linear_14_78)"/>
</mask>
<g mask="url(#mask1_14_78)">
<mask id="mask2_14_78" style="mask-type:luminance" maskUnits="userSpaceOnUse" x="4" y="206" width="358" height="124">
<path d="M4 330H362V206H4V330Z" fill="white"/>
</mask>
<g mask="url(#mask2_14_78)">
<path fill-rule="evenodd" clip-rule="evenodd" d="M243.396 316.055V308.459H226.277V286.728C226.277 282.112 229.857 279.801 235.75 279.801C238.952 279.829 242.134 280.171 245.219 280.817L246.788 273.128C242.689 272.13 238.402 271.64 234.093 271.677C221.921 271.677 214.32 276.772 214.32 285.612V308.452H203.975V316.048H214.509V330H226.176V316.055H243.396ZM177.648 298.82C170.341 299.957 167.624 301.314 167.624 304.022C167.624 307.233 171.971 309.12 180.742 309.12C186.791 309.12 192.785 308.266 198.399 306.581L199.67 314.377C193.436 316.163 186.809 317.051 180.136 316.995C165.619 316.995 155.943 311.566 155.943 304.198C155.943 297.507 161.355 293.126 171.594 291.575L180.186 290.263C187.686 289.126 190.839 287.541 190.839 284.606C190.839 281.251 186.782 279.611 178.08 279.611C171.256 279.676 164.515 280.744 158.238 282.756L156.788 274.995C161.814 272.956 170.025 271.75 178.855 271.75C192.941 271.75 202.493 275.953 202.493 284.741C202.493 292.292 196.205 296.009 184.409 297.814L177.648 298.83V298.82Z" fill="#5A2989"/>
<path fill-rule="evenodd" clip-rule="evenodd" d="M275.878 280.124C273.37 280.072 270.873 280.406 268.544 281.106C265.029 282.163 262.032 284.005 259.956 286.382C257.88 288.758 256.826 291.556 256.936 294.397C256.95 297.208 258.07 299.943 260.149 302.275C261.7 304.016 263.746 305.477 266.14 306.552C268.534 307.628 271.216 308.291 273.992 308.494C276.769 308.697 279.571 308.435 282.197 307.726C284.822 307.018 287.206 305.881 289.175 304.397C291.813 302.411 293.609 299.883 294.338 297.132C295.066 294.381 294.694 291.529 293.269 288.936C291.855 286.344 289.449 284.124 286.356 282.558C283.262 280.991 279.619 280.148 275.887 280.135L275.878 280.124ZM275.878 316.961C258.217 316.961 245.012 307.053 245.012 294.331C245.012 281.613 258.203 271.702 275.864 271.702C293.526 271.702 306.689 281.613 306.689 294.335C306.689 307.053 293.526 316.961 275.878 316.961Z" fill="#5A2989"/>
<path fill-rule="evenodd" clip-rule="evenodd" d="M316.653 316.055L331.708 300.759L346.757 316.055H360.54L339.134 294.796L361.022 272.611H347.239L331.708 288.864L316.158 272.611H302.365L324.263 294.796L302.847 316.055H316.653Z" fill="#5A2989"/>
<path d="M122.957 279.763C120.428 279.717 117.913 280.057 115.564 280.76C113.215 281.464 111.08 282.518 109.289 283.859C107.497 285.199 106.086 286.798 105.14 288.558C104.194 290.319 103.733 292.206 103.786 294.104C103.786 302.113 111.758 308.893 122.943 308.91C134.115 308.91 141.578 302.124 141.578 294.107C141.578 286.091 134.142 279.763 122.966 279.763H122.957ZM124.394 316.954C114.526 316.954 107.999 314.243 103.698 310.126V316.048H91.7284V254.504H103.698V278.567C107.999 274.495 114.526 271.732 124.394 271.732C140.894 271.732 153.538 280.779 153.538 294.142C153.538 307.508 140.894 316.954 124.394 316.954Z" fill="#5A2989"/>
<path fill-rule="evenodd" clip-rule="evenodd" d="M30.1753 292.774C35.2351 295.448 39.345 299.012 42.1454 303.154V291.586C42.1454 284.386 47.4006 280.224 56.2909 280.224C65.1813 280.224 72.6213 284.379 72.6213 291.586V316.027H84.6143V272.59H72.5754V278.078C70.6385 275.856 65.1446 271.705 54.4459 271.705C38.6067 271.705 30.212 279.129 30.212 289.674L30.1891 292.781L30.1753 292.774Z" fill="#5A2989"/>
<path d="M4 296.519V287.803C14.0807 287.804 23.7563 290.781 30.9372 296.092C34.473 298.698 37.2818 301.806 39.1999 305.235C41.1179 308.664 42.1068 312.346 42.1086 316.065H30.3681C30.3591 313.495 29.6714 310.951 28.3447 308.581C27.0181 306.211 25.0788 304.062 22.6389 302.258C17.6681 298.579 10.9672 296.518 3.98623 296.519H4ZM34.329 239.902V222.822H30.212V239.898H34.329V239.902ZM41.2412 230.328V222.818H37.216V235.633H41.0576V233.453H41.2641C41.6497 234.169 42.2785 234.741 43.1459 235.168C44.0042 235.595 45.0828 235.802 46.3496 235.802C47.5337 235.802 48.5618 235.613 49.4293 235.241C50.3105 234.862 50.9898 234.317 51.4717 233.601C51.9536 232.884 52.1969 232.016 52.1831 230.99V222.829H48.1625V230.518C48.1625 231.369 47.8734 232.04 47.2813 232.529C46.6846 233.012 45.8768 233.253 44.8395 233.253C44.1863 233.261 43.5414 233.142 42.9669 232.908C42.4205 232.677 41.9756 232.331 41.6864 231.913C41.3656 231.423 41.2081 230.881 41.2274 230.335L41.2412 230.328ZM69.5186 235.63L63.4418 222.822H58.9943L52.9267 235.626H57.2135L61.1377 226.108H61.3213L65.2593 235.626H69.5324H69.5232L69.5186 235.63ZM77.849 222.574C76.3033 222.546 74.7753 222.825 73.4199 223.383C72.1821 223.912 71.1844 224.708 70.5559 225.667C69.8603 226.755 69.5174 227.951 69.5553 229.157C69.5553 230.5 69.8904 231.63 70.5559 232.629C71.2214 233.628 72.1623 234.407 73.3694 234.968C74.6538 235.543 76.1293 235.832 77.6241 235.802C78.6751 235.802 79.6619 235.675 80.6074 235.423C81.5791 235.162 82.4602 234.741 83.1855 234.19C83.9109 233.639 84.4619 232.972 84.7978 232.24C85.2109 231.424 85.4266 230.452 85.4266 229.329V228.406H71.4371V230.438H81.5713C81.5823 230.978 81.4118 231.511 81.0756 231.989C80.7491 232.447 80.2574 232.826 79.6566 233.084C79.0559 233.342 78.3705 233.467 77.6792 233.446C76.9173 233.458 76.1673 233.302 75.522 232.998C74.9093 232.712 74.4088 232.309 74.0716 231.83C73.7236 231.345 73.5407 230.803 73.5392 230.252V228.478C73.5392 227.734 73.7228 227.09 74.0854 226.563C74.4226 226.056 74.9509 225.634 75.6046 225.35C76.3068 225.061 77.0988 224.917 77.8995 224.933C78.4778 224.933 79.0102 224.995 79.4967 225.123C79.954 225.239 80.3732 225.427 80.7267 225.674C81.0843 225.924 81.354 226.236 81.5116 226.584L85.266 226.263C85.0273 225.523 84.5775 224.868 83.9166 224.317C83.2511 223.766 82.402 223.335 81.3785 223.028C80.3504 222.718 79.1616 222.574 77.849 222.574ZM100.922 232.25L97.2498 231.951C97.1356 232.25 96.9362 232.528 96.6651 232.764C96.3941 233 96.0581 233.189 95.6801 233.318C95.18 233.478 94.6401 233.556 94.0967 233.546C93.358 233.564 92.6279 233.422 91.9946 233.136C91.43 232.864 91.15 232.512 91.1638 232.078C91.1638 231.706 91.3474 231.396 91.7146 231.169C92.091 230.935 92.7106 230.745 93.578 230.597L96.4879 230.128C98.1081 229.863 99.306 229.446 100.1 228.888C100.885 228.323 101.284 227.579 101.293 226.656C101.293 225.85 100.972 225.14 100.357 224.523C99.6879 223.878 98.7981 223.38 97.7822 223.084C96.6807 222.739 95.4277 222.567 94.0003 222.567C91.9119 222.567 90.2367 222.891 88.9516 223.555C88.3353 223.869 87.8138 224.277 87.4209 224.752C87.0279 225.226 86.7722 225.758 86.6705 226.311L90.5947 226.59C90.7783 226.012 91.1501 225.578 91.7284 225.285C92.3113 224.985 93.0594 224.84 93.9911 224.84C94.9182 224.84 95.7168 224.985 96.2952 225.288C96.878 225.578 97.1672 225.946 97.1672 226.384C97.1701 226.556 97.1218 226.727 97.0257 226.884C96.9297 227.041 96.7883 227.179 96.6118 227.29C96.098 227.576 95.4997 227.765 94.8677 227.841L91.9624 228.306C90.3193 228.557 89.1076 228.995 88.3228 229.601C87.9319 229.908 87.6269 230.271 87.4259 230.668C87.2249 231.065 87.1319 231.488 87.1524 231.913C87.1524 232.705 87.4278 233.394 88.0107 233.973C88.589 234.552 89.4014 235.006 90.4386 235.323C91.4759 235.64 92.6876 235.806 94.0508 235.806C96.0565 235.806 97.6262 235.485 98.7828 234.841C99.9302 234.197 100.646 233.336 100.922 232.25ZM111.735 235.63V233.291H101.927V235.633L111.735 235.63ZM104.341 238.696H108.362V226.666C108.362 226.256 108.449 225.95 108.619 225.733C108.76 225.531 108.995 225.375 109.28 225.295C109.555 225.226 109.862 225.178 110.188 225.178C110.419 225.178 110.649 225.193 110.877 225.223C111.038 225.244 111.199 225.268 111.359 225.295L112.033 222.939C111.269 222.748 110.47 222.647 109.665 222.639C108.737 222.609 107.811 222.726 106.948 222.984C106.164 223.221 105.495 223.632 105.029 224.162C104.536 224.763 104.292 225.461 104.327 226.167V238.692L104.341 238.696ZM120.226 222.822V239.898H128.763C130.516 239.898 131.976 239.671 133.174 239.22C134.358 238.765 135.262 238.121 135.882 237.304C136.497 236.491 136.8 235.53 136.8 234.441C136.8 233.353 136.483 232.392 135.868 231.592C135.234 230.777 134.28 230.127 133.137 229.732C131.944 229.302 130.47 229.081 128.717 229.081H122.64V231.648H128.162C129.19 231.648 130.021 231.758 130.672 231.965C131.281 232.15 131.791 232.482 132.123 232.908C132.456 233.38 132.619 233.908 132.595 234.441C132.616 234.983 132.449 235.52 132.109 235.999C131.781 236.438 131.267 236.783 130.649 236.98C129.849 237.226 128.989 237.34 128.125 237.314H124.343V222.818H120.226V222.822ZM131.976 230.562L137.621 222.822H133.018L127.482 230.562H131.99H131.98H131.976ZM141.027 237.452C140.416 237.446 139.827 237.619 139.384 237.935C139.165 238.08 138.991 238.259 138.872 238.459C138.753 238.659 138.693 238.876 138.695 239.096C138.695 239.547 138.925 239.929 139.384 240.246C139.827 240.562 140.416 240.735 141.027 240.728C141.669 240.728 142.22 240.563 142.679 240.246C143.138 239.919 143.368 239.54 143.368 239.085C143.368 238.63 143.138 238.252 142.679 237.935C142.234 237.618 141.64 237.445 141.027 237.452ZM139.007 222.822V235.626H143.033V222.818H139.007V222.822ZM153.176 217.751C151.912 217.73 150.653 217.878 149.458 218.188C148.517 218.432 147.662 218.833 146.957 219.36C146.358 219.816 145.907 220.37 145.639 220.979L149.265 221.64C149.673 221.02 150.373 220.536 151.23 220.283C151.762 220.117 152.428 220.035 153.235 220.035C154.374 220.035 155.328 220.245 156.077 220.662C156.825 221.079 157.201 221.761 157.201 222.701V225.133H156.994C156.788 224.823 156.49 224.496 156.086 224.169C155.644 223.816 155.109 223.536 154.516 223.345C153.744 223.108 152.913 222.994 152.079 223.011C150.775 223.011 149.577 223.245 148.513 223.707C147.414 224.201 146.533 224.927 145.979 225.795C145.35 226.718 145.034 227.879 145.034 229.274C145.034 230.673 145.35 231.868 145.979 232.84C146.53 233.741 147.408 234.508 148.513 235.051C149.582 235.552 150.819 235.812 152.079 235.802C153.079 235.802 153.901 235.675 154.557 235.423C155.205 235.168 155.714 234.872 156.1 234.514C156.485 234.162 156.774 233.825 156.981 233.515H157.201V235.64H161.162V222.618C161.162 221.523 160.813 220.617 160.106 219.9C159.382 219.17 158.395 218.611 157.261 218.288C156.054 217.923 154.69 217.751 153.153 217.751H153.176ZM153.213 225.378C153.986 225.358 154.748 225.523 155.388 225.85C156.011 226.184 156.486 226.651 156.751 227.19C157.068 227.769 157.224 228.478 157.224 229.291C157.224 230.108 157.068 230.807 156.765 231.413C156.504 231.972 156.034 232.463 155.411 232.826C154.774 233.174 154 233.353 153.213 233.336C152.34 233.336 151.569 233.163 150.964 232.812C150.342 232.436 149.874 231.935 149.614 231.369C149.311 230.762 149.155 230.073 149.155 229.295C149.155 228.513 149.311 227.824 149.614 227.235C149.878 226.688 150.353 226.212 150.977 225.867C151.629 225.53 152.408 225.358 153.199 225.378H153.213ZM167.936 230.328V222.818H163.916V239.905H167.854V233.456H168.056C168.429 234.157 169.079 234.754 169.919 235.168C170.764 235.585 171.829 235.802 173.132 235.802C174.316 235.802 175.353 235.613 176.235 235.241C177.116 234.869 177.795 234.328 178.291 233.611C178.773 232.895 179.016 232.013 179.016 230.979V222.822H174.991V230.511C174.991 231.372 174.702 232.04 174.11 232.523C173.518 233.005 172.696 233.246 171.631 233.246C170.968 233.252 170.313 233.134 169.726 232.902C169.166 232.673 168.708 232.325 168.409 231.903C168.079 231.416 167.916 230.874 167.936 230.328ZM190.21 235.63V233.291H180.402V235.633L190.21 235.63ZM182.821 238.696H186.842V226.666C186.816 226.344 186.903 226.022 187.094 225.733C187.236 225.53 187.473 225.374 187.76 225.295C188.051 225.22 188.356 225.18 188.664 225.178C188.895 225.178 189.125 225.193 189.352 225.223L189.839 225.295L190.513 222.939C189.749 222.748 188.95 222.647 188.145 222.639C187.217 222.609 186.291 222.726 185.428 222.984C184.642 223.221 183.972 223.632 183.505 224.162C183.013 224.764 182.77 225.461 182.807 226.167V238.692L182.821 238.696ZM196.889 225.161L196.746 224.244C196.636 223.545 196.457 222.832 196.191 222.105C195.925 221.382 195.645 220.707 195.365 220.1C195.08 219.494 194.851 219.005 194.667 218.66H191.95C192.06 219.005 192.193 219.456 192.372 220.045C192.556 220.627 192.739 221.285 192.905 222.012C193.077 222.747 193.194 223.489 193.253 224.234L193.327 225.168H196.879L196.889 225.161ZM209.937 239.902V222.822H205.816V239.898H209.937V239.902ZM216.859 230.328V222.818H212.833V235.633H216.675V233.453H216.881C217.267 234.169 217.896 234.741 218.763 235.168C219.626 235.595 220.7 235.802 221.967 235.802C223.151 235.802 224.179 235.613 225.047 235.241C225.928 234.862 226.607 234.317 227.089 233.601C227.571 232.884 227.814 232.016 227.8 230.99V222.829H223.78V230.518C223.78 231.369 223.491 232.04 222.899 232.529C222.302 233.012 221.494 233.253 220.457 233.253C219.804 233.261 219.159 233.142 218.584 232.908C218.038 232.677 217.593 232.331 217.304 231.913C216.983 231.423 216.825 230.881 216.845 230.335L216.859 230.328ZM245.136 235.63L239.059 222.822H234.616L228.539 235.63H232.826L236.75 226.112H236.934L240.872 235.63H245.145H245.136ZM253.471 222.574C251.924 222.545 250.394 222.824 249.037 223.383C247.799 223.912 246.802 224.708 246.173 225.667C245.478 226.755 245.135 227.951 245.173 229.157C245.173 230.5 245.508 231.63 246.173 232.629C246.839 233.628 247.78 234.407 248.987 234.968C250.198 235.53 251.607 235.802 253.241 235.802C254.292 235.802 255.279 235.675 256.225 235.423C257.196 235.162 258.078 234.741 258.803 234.19C259.528 233.639 260.079 232.972 260.415 232.24C260.828 231.424 261.044 230.452 261.044 229.329V228.406H247.054V230.438H257.189C257.2 230.978 257.029 231.511 256.693 231.989C256.366 232.447 255.875 232.826 255.274 233.084C254.673 233.342 253.988 233.467 253.297 233.446C252.535 233.458 251.785 233.302 251.139 232.998C250.527 232.712 250.026 232.309 249.689 231.83C249.341 231.345 249.158 230.803 249.157 230.252V228.478C249.157 227.734 249.34 227.09 249.703 226.563C250.04 226.056 250.568 225.634 251.222 225.35C251.924 225.061 252.716 224.917 253.517 224.933C254.1 224.933 254.628 224.995 255.114 225.123C255.571 225.239 255.991 225.427 256.344 225.674C256.702 225.924 256.972 226.236 257.129 226.584L260.888 226.263C260.645 225.523 260.199 224.868 259.534 224.317C258.868 223.766 258.019 223.335 256.996 223.028C255.968 222.718 254.788 222.574 253.471 222.574ZM276.539 232.25L272.867 231.951C272.753 232.25 272.554 232.528 272.282 232.764C272.011 233 271.675 233.189 271.297 233.318C270.797 233.478 270.257 233.556 269.714 233.546C268.975 233.564 268.245 233.422 267.612 233.136C267.047 232.864 266.767 232.512 266.781 232.078C266.781 231.706 266.965 231.396 267.332 231.169C267.708 230.935 268.328 230.745 269.195 230.597L272.105 230.128C273.725 229.863 274.923 229.446 275.717 228.888C276.502 228.323 276.902 227.579 276.911 226.656C276.911 225.85 276.589 225.14 275.974 224.523C275.307 223.878 274.418 223.381 273.404 223.084C272.303 222.739 271.045 222.567 269.618 222.567C267.529 222.567 265.854 222.891 264.569 223.555C263.953 223.869 263.432 224.277 263.039 224.752C262.646 225.226 262.39 225.758 262.288 226.311L266.212 226.59C266.396 226.012 266.767 225.578 267.346 225.285C267.929 224.985 268.677 224.84 269.608 224.84C270.536 224.84 271.334 224.985 271.912 225.288C272.495 225.578 272.785 225.946 272.785 226.384C272.787 226.556 272.739 226.727 272.643 226.884C272.547 227.041 272.406 227.179 272.229 227.29C271.715 227.576 271.117 227.765 270.485 227.841L267.58 228.306C265.937 228.557 264.73 228.995 263.94 229.601C263.549 229.908 263.244 230.271 263.043 230.668C262.842 231.065 262.749 231.488 262.77 231.913C262.77 232.705 263.045 233.394 263.628 233.973C264.206 234.552 265.019 235.006 266.056 235.323C267.093 235.64 268.305 235.806 269.668 235.806C271.674 235.806 273.244 235.485 274.4 234.841C275.548 234.197 276.264 233.336 276.539 232.25ZM287.352 235.63V233.291H277.544V235.633L287.352 235.63ZM279.963 238.696H283.984V226.666C283.984 226.256 284.066 225.95 284.236 225.733C284.379 225.53 284.615 225.375 284.901 225.295C285.192 225.22 285.498 225.18 285.806 225.178C286.036 225.178 286.267 225.193 286.494 225.223L286.976 225.295L287.651 222.939C286.886 222.748 286.088 222.647 285.282 222.639C284.356 222.609 283.432 222.727 282.57 222.984C281.784 223.221 281.113 223.632 280.647 224.162C280.155 224.764 279.912 225.461 279.949 226.167V238.692H279.958L279.963 238.696ZM314.542 239.902V222.822H310.87L300.144 234.452H299.951V222.822H295.83V239.898H299.515L310.228 228.254H310.434V239.898H314.542V239.902ZM324.883 222.577C323.212 222.577 321.762 222.849 320.545 223.404C319.324 223.953 318.338 224.754 317.704 225.712C317.011 226.794 316.668 227.984 316.704 229.184C316.704 230.507 317.043 231.668 317.704 232.664C318.37 233.663 319.325 234.435 320.545 234.989C321.766 235.54 323.212 235.816 324.883 235.816C326.549 235.816 327.999 235.54 329.215 234.989C330.436 234.435 331.391 233.663 332.056 232.667C332.722 231.668 333.057 230.507 333.057 229.188C333.057 227.862 332.722 226.701 332.056 225.712C331.419 224.756 330.434 223.956 329.215 223.404C327.999 222.849 326.549 222.577 324.883 222.577ZM324.906 224.995C325.727 224.979 326.53 225.177 327.178 225.557C327.813 225.956 328.285 226.481 328.541 227.073C328.844 227.707 328.986 228.416 328.986 229.195C329.001 229.918 328.851 230.639 328.541 231.324C328.282 231.917 327.811 232.445 327.178 232.85C326.535 233.237 325.728 233.436 324.906 233.411C324.073 233.431 323.257 233.232 322.597 232.85C321.964 232.445 321.492 231.917 321.234 231.324C320.924 230.638 320.774 229.918 320.789 229.195C320.789 228.413 320.931 227.707 321.234 227.073C321.49 226.482 321.962 225.956 322.597 225.557C323.212 225.188 323.974 224.995 324.906 224.995ZM338.106 222.822L333.287 235.63H337.381L340.378 226.618H340.534L343.604 235.63H347.662L350.732 226.673H350.897L353.858 235.63H357.966L353.133 222.822H348.942L345.743 231.479H345.514L342.31 222.822H338.106ZM359.549 222.639C359.225 222.636 358.904 222.681 358.605 222.773C358.305 222.865 358.033 223.001 357.805 223.173C357.572 223.342 357.389 223.546 357.267 223.771C357.145 223.997 357.088 224.239 357.098 224.482C357.098 224.978 357.328 225.405 357.81 225.767C358.037 225.939 358.308 226.075 358.607 226.167C358.906 226.258 359.226 226.304 359.549 226.301C360.224 226.301 360.77 226.122 361.247 225.767C361.484 225.603 361.671 225.404 361.799 225.182C361.926 224.96 361.99 224.72 361.986 224.479C361.972 223.995 361.709 223.534 361.252 223.192C360.795 222.85 360.18 222.655 359.535 222.646L359.549 222.639Z" fill="#5A2989"/>
</g>
</g>
</g>
<defs>
<filter id="filter0_d_14_78" x="0" y="213.749" width="365.986" height="120.251" filterUnits="userSpaceOnUse" color-interpolation-filters="sRGB">
<feFlood flood-opacity="0" result="BackgroundImageFix"/>
<feColorMatrix in="SourceAlpha" type="matrix" values="0 0 0 0 0 0 0 0 0 0 0 0 0 0 0 0 0 0 127 0" result="hardAlpha"/>
<feOffset/>
<feGaussianBlur stdDeviation="2"/>
<feColorMatrix type="matrix" values="0 0 0 0 0 0 0 0 0 0 0 0 0 0 0 0 0 0 1 0"/>
<feBlend mode="normal" in2="BackgroundImageFix" result="effect1_dropShadow_14_78"/>
<feBlend mode="normal" in="SourceGraphic" in2="effect1_dropShadow_14_78" result="shape"/>
</filter>
<linearGradient id="paint0_linear_14_78" x1="183" y1="206" x2="183" y2="330" gradientUnits="userSpaceOnUse">
<stop stop-color="white"/>
<stop offset="1" stop-opacity="0"/>
</linearGradient>
</defs>
</svg>
